<?xml version="1.0" encoding="utf-8"?>
<!-- Generator: Adobe Illustrator 18.1.1, SVG Export Plug-In . SVG Version: 6.00 Build 0)  -->
<!DOCTYPE svg PUBLIC "-//W3C//DTD SVG 1.1//EN" "http://www.w3.org/Graphics/SVG/1.1/DTD/svg11.dtd">
<svg version="1.1" id="Layer_1" xmlns="http://www.w3.org/2000/svg" xmlns:xlink="http://www.w3.org/1999/xlink" x="0px" y="0px"
	 viewBox="0 0 120 120" enable-background="new 0 0 120 120" xml:space="preserve">
<g>
	<path fill="#A9D164" d="M64,64.6v18.7c3-0.4,5.1-1.6,6.8-3.3c1.7-1.8,2.6-3.9,2.6-6.3c0-2.1-0.8-4-2.3-5.6
		C69.8,66.7,68,65.5,64,64.6z"/>
	<path fill="#A9D164" d="M51.1,35.5c-1.3,1.5-1.8,3.2-1.8,5.1c0,1.7,0.4,3.3,1.6,4.7C52,46.8,54,48,56,48.9V32.2
		C54,32.9,52.3,34,51.1,35.5z"/>
	<path fill="#A9D164" d="M60,0C26.9,0,0,26.9,0,60c0,33.1,26.9,60,60,60s60-26.9,60-60C120,26.9,93.1,0,60,0z M80.8,86.7
		c-4,4-9.8,6.4-16.8,7.3v8.9h-8v-8.7c-6-0.7-11.2-2.7-15.2-6.2c-3.9-3.5-6.3-8.3-7.4-14.7L47.7,72c0.6,2.6,1.5,4.8,3.1,6.6
		c1.6,1.9,3.2,3.2,5.2,4V62.6c-7-1.8-12.2-4.5-15.5-8.1c-3.3-3.6-4.9-8.1-4.9-13.2c0-5.3,1.7-9.7,5.5-13.2c3.8-3.6,8.9-5.6,14.9-6.2
		v-6.7h8v6.7c6,0.6,10.6,2.3,14,5.2c3.4,2.9,5.7,6.7,6.6,11.5l-14,1.6c-0.8-3.8-2.7-6.3-6.7-7.7v18.8c9,2.1,14.9,4.8,18,8.1
		c3.2,3.3,4.8,7.6,4.8,12.8C86.8,77.8,84.8,82.7,80.8,86.7z"/>
</g>
</svg>
