<?xml version="1.0" encoding="utf-8"?>
<!-- Generator: Adobe Illustrator 18.1.1, SVG Export Plug-In . SVG Version: 6.00 Build 0)  -->
<!DOCTYPE svg PUBLIC "-//W3C//DTD SVG 1.1//EN" "http://www.w3.org/Graphics/SVG/1.1/DTD/svg11.dtd">
<svg version="1.1" id="Layer_1" xmlns="http://www.w3.org/2000/svg" xmlns:xlink="http://www.w3.org/1999/xlink" x="0px" y="0px"
	 viewBox="0 0 120 120" enable-background="new 0 0 120 120" xml:space="preserve">
<g>
	<path fill="#676868" d="M106,45c-4.1,0-7.5,3.4-7.5,7.5v30c0,4.1,3.4,7.5,7.5,7.5c4.1,0,7.5-3.4,7.5-7.5v-30
		C113.5,48.4,110.1,45,106,45z M16,45c-4.1,0-7.5,3.4-7.5,7.5v30c0,4.1,3.4,7.5,7.5,7.5s7.5-3.4,7.5-7.5v-30
		C23.5,48.4,20.1,45,16,45z M27.3,86.3c0,6.2,5,11.2,11.2,11.2l0,0v15c0,4.1,3.4,7.5,7.5,7.5s7.5-3.4,7.5-7.5v-15h15v15
		c0,4.1,3.4,7.5,7.5,7.5c4.1,0,7.5-3.4,7.5-7.5v-15c6.2,0,11.2-5,11.2-11.2V45H27.3V86.3z"/>
	<path fill="#676868" d="M94.5,37.5c-1.1-10.3-6.9-19.2-15.2-24.6l3.8-7.5c0.9-1.9,0.2-4.1-1.7-5c-1.9-0.9-4.1-0.2-5,1.7l-3.8,7.5
		l-1-0.4C68.3,8.1,64.7,7.5,61,7.5c-3.7,0-7.3,0.6-10.7,1.7l-1,0.4l-3.8-7.5c-0.9-1.9-3.2-2.6-5-1.7s-2.6,3.2-1.7,5l3.8,7.5
		c-8.3,5.4-14.1,14.3-15.2,24.6v3.7h67.3v-3.7H94.5L94.5,37.5z M49.8,30c-2.1,0-3.7-1.7-3.7-3.7c0-2.1,1.7-3.7,3.7-3.7c0,0,0,0,0,0
		c0,0,0,0,0,0c2.1,0,3.7,1.7,3.7,3.7C53.5,28.3,51.8,30,49.8,30z M72.2,30c-2.1,0-3.7-1.7-3.7-3.7c0-2.1,1.7-3.7,3.7-3.7
		c0,0,0,0,0,0c0,0,0,0,0,0c2.1,0,3.7,1.7,3.7,3.7C76,28.3,74.3,30,72.2,30z"/>
</g>
</svg>
