<?xml version="1.0" encoding="utf-8"?>
<!-- Generator: Adobe Illustrator 18.1.1, SVG Export Plug-In . SVG Version: 6.00 Build 0)  -->
<!DOCTYPE svg PUBLIC "-//W3C//DTD SVG 1.1//EN" "http://www.w3.org/Graphics/SVG/1.1/DTD/svg11.dtd">
<svg version="1.1" id="Layer_1" xmlns="http://www.w3.org/2000/svg" xmlns:xlink="http://www.w3.org/1999/xlink" x="0px" y="0px"
	 viewBox="0 0 120 120" enable-background="new 0 0 120 120" xml:space="preserve">
<g>
	<path fill="#676868" d="M99.2,60c0,2.7-1,5-2.9,7l-50.2,50.1c-1.9,1.9-4.2,2.9-6.9,2.9c-2.7,0-5-1-6.9-2.9l-5.8-5.8
		c-1.9-2-2.9-4.4-2.9-7c0-2.8,1-5.1,2.9-6.9L63.9,60L26.6,22.6c-1.9-2-2.9-4.4-2.9-7c0-2.8,1-5.1,2.9-6.9l5.8-5.8
		C34.2,1,36.5,0,39.2,0c2.8,0,5.1,1,6.9,2.9L96.4,53c1.9,1.9,2.9,4.2,2.9,6.9V60z"/>
</g>
</svg>
