<?xml version="1.0" encoding="utf-8"?>
<!-- Generator: Adobe Illustrator 18.1.1, SVG Export Plug-In . SVG Version: 6.00 Build 0)  -->
<!DOCTYPE svg PUBLIC "-//W3C//DTD SVG 1.1//EN" "http://www.w3.org/Graphics/SVG/1.1/DTD/svg11.dtd">
<svg version="1.1" id="Layer_1" xmlns="http://www.w3.org/2000/svg" xmlns:xlink="http://www.w3.org/1999/xlink" x="0px" y="0px"
	 viewBox="0 0 120 120" enable-background="new 0 0 120 120" xml:space="preserve">
<g>
	<path fill="#676868" d="M56.9,0C59,0,61,0,63.1,0c1,0,1.9,0.2,2.9,0.3c11.7,1.3,22.3,5.4,31.4,12.9c11.5,9.3,18.8,21.3,21.5,36
		c0.4,2.4,0.7,4.8,1.1,7.2c0,2.4,0,4.9,0,7.3c-0.1,0.4-0.2,0.9-0.3,1.3c-0.3,2.3-0.5,4.7-1,6.9c-5.2,24.8-24.5,43.2-49.4,47.3
		c-2,0.3-4,0.8-6,0.8c-2.3,0-4.5,0-6.8,0c-0.4,0-0.8-0.2-1.2-0.3c-2.4-0.3-4.8-0.5-7.1-1c-11.7-2.4-21.9-7.7-30.5-16.2
		C8.5,93.3,2.8,82.1,0.8,69C0.5,66.8,0,64.5,0,62.3c0-1.5,0-3.1,0-4.6c0-1.9,0.4-3.8,0.6-5.8c1.9-13.3,7.5-24.8,17-34.3
		C26.8,8.4,38,2.8,50.9,0.8C52.9,0.5,54.9,0,56.9,0z M59.5,40.2c-0.4-0.5-0.8-1.1-1.4-1.5c-1.2-0.8-2.6-1.5-3.9-2.2
		c-1.7-1-2.4-0.8-3.4,0.9c-2.6,4.6-5.3,9.1-7.9,13.7c-4.4,7.7-8.9,15.5-13.3,23.2c-1,1.7-0.8,2.4,0.9,3.4c1.2,0.7,2.4,1.4,3.6,2.1
		c1.5,0.8,2.3,0.6,3.2-0.9c7.1-12.4,14.2-24.8,21.3-37.2C59,41.3,59.2,40.9,59.5,40.2z M85.2,64.7c-0.2-0.6-0.4-1.1-0.6-1.6
		c-6.9-13.7-14.5-27-22.5-40.1c-1-1.6-2.2-3.2-3.3-4.8c-0.3-0.3-0.8-0.5-1.2-0.7c-0.2,0.5-0.5,1-0.4,1.4c0.5,2.2,1,4.5,1.8,6.6
		c4.3,10.2,8.8,20.3,13.3,30.5c1.6,3.6,3.6,7.1,5.4,10.6c0.6,1.3,1.8,2,3.1,1.7c1.4-0.4,2.6-1.3,3.8-2.1C84.9,66,85,65.3,85.2,64.7z
		 M40,49.6c-0.3-0.1-0.3-0.2-0.4-0.2c-5.9,0-11.7,0-17.6,0c-1.3,0-1.8,0.7-1.8,2c0,3.3,0,6.6,0,9.9c0,1.5,0.5,2,2.1,2c3,0,6,0,9.1,0
		c0.4,0,0.9-0.2,1.1-0.5C35,58.4,37.5,54.1,40,49.6z M71.8,63c-2-4-4-8.7-6-13c-0.2-0.3-0.7-0.6-1.1-0.6c-1.8-0.1-3.5,0-5.3,0
		c-0.8,0-1.2,0.3-1.6,1c-2.1,3.7-4.2,7.3-6.4,11c-0.3,0.5-0.6,1.6-1,1.6C57.6,63,64.6,63,71.8,63z M81.3,49c0,1,0,0.5,0,0.6
		c2.3,4.4,4.5,8.8,6.8,13.2c0.1,0.3,0.6,0.5,1,0.5c2.5,0,5.1,0.1,7.6,0c1.4,0,1.9-0.5,1.9-2c0-3.3,0-6.6,0-9.9
		c0-1.5-0.5-2.1-1.9-2.2c-1.6,0-3.2-0.2-4.9-0.2C88.4,49,84.9,49,81.3,49z M96.3,90.3c0-1.3,0.2-2.6,0-3.9c-0.2-1.6-0.6-3.2-1.3-4.6
		c-0.9-1.9-3.1-2.1-5.2-0.9c-1.6,1-2.2,2.8-1.1,4.4c0.7,1.1,1.8,2,2.9,2.7C93.1,88.9,94.7,89.5,96.3,90.3z M90.5,75.9
		c-0.1-0.4-0.1-0.6-0.2-0.7c-0.9-1.7-1.7-3.4-2.6-5c-0.5-0.9-1.4-1.1-2.4-0.6c-0.9,0.4-1.8,0.9-2.7,1.3c-1.1,0.6-1.3,1.5-0.8,2.5
		c0.9,1.6,1.9,3.2,3,4.7c0.6,0.9,1.5,1,2.4,0.6c0.9-0.4,1.7-0.9,2.4-1.5C90.1,76.9,90.3,76.3,90.5,75.9z M25.9,87.2
		c0,0.2,0.1,0.7,0.3,1.3c0.6-0.2,1.2-0.3,1.6-0.6c1.7-1.1,3.4-2.3,5.1-3.5c1.2-0.8,1.2-1.5-0.1-2.2c-1.3-0.8-2.7-1.6-4.1-2.3
		c-1.4-0.8-2-0.5-2.2,1.1C26.4,82.8,26.2,84.8,25.9,87.2z"/>
</g>
</svg>
