<?xml version="1.0" encoding="utf-8"?>
<!-- Generator: Adobe Illustrator 18.1.1, SVG Export Plug-In . SVG Version: 6.00 Build 0)  -->
<!DOCTYPE svg PUBLIC "-//W3C//DTD SVG 1.1//EN" "http://www.w3.org/Graphics/SVG/1.1/DTD/svg11.dtd">
<svg version="1.1" id="Layer_1" xmlns="http://www.w3.org/2000/svg" xmlns:xlink="http://www.w3.org/1999/xlink" x="0px" y="0px"
	 viewBox="0 0 120 120" enable-background="new 0 0 120 120" xml:space="preserve">
<path fill="#4374BA" d="M91,51V17.5L60,0L29,17.5V51L0,67.5v35L30.8,120l29-16.5L89,120l31-17.5v-35L91,51z M88.7,83.1L63.9,69
	l24.8-14.1L113.6,69L88.7,83.1z M30.9,83L6.1,68.9l24.6-14L55.5,69L30.9,83z M34,23l23,13.6v27L34,50V23z M62,64.1v-27l24-14v27
	L62,64.1z M84.5,19L59.7,33.1L34.9,19L59.7,4.9L84.5,19z M4,72.8l25,14V114L4,100V72.8z M34,113.6v-27L57,73v27L34,113.6z M63,73
	l23,13.6v27L63,100V73z M92,113.6v-27L116,73v27L92,113.6z"/>
</svg>
