<?xml version="1.0" encoding="utf-8"?>
<!-- Generator: Adobe Illustrator 18.1.1, SVG Export Plug-In . SVG Version: 6.00 Build 0)  -->
<!DOCTYPE svg PUBLIC "-//W3C//DTD SVG 1.1//EN" "http://www.w3.org/Graphics/SVG/1.1/DTD/svg11.dtd">
<svg version="1.1" id="Layer_1" xmlns="http://www.w3.org/2000/svg" xmlns:xlink="http://www.w3.org/1999/xlink" x="0px" y="0px"
	 viewBox="0 0 120 120" enable-background="new 0 0 120 120" xml:space="preserve">
<polygon fill="#5986BC" points="90,51 60,68.5 60,68.5 60,34.1 90,17 "/>
<polygon fill="#204994" points="60,68.5 60,34.1 30.1,17 30,51.5 60,68.5 "/>
<polygon fill="#8AB3D5" points="90,17 60.1,0 30.1,17 60,34.1 "/>
<polygon fill="#5986BC" points="120,68.5 120,102.9 90,119.9 90,120 90,85.6 120,68.5 "/>
<polygon fill="#204994" points="90,120 90,85.6 60,68.5 60,102.8 90,119.9 "/>
<polygon fill="#8AB3D5" points="120,68.5 90,51.4 60,68.5 90,85.6 "/>
<polygon fill="#5986BC" points="60,68.5 60,102.8 30,120 30,120 30,85.6 60,68.5 "/>
<polygon fill="#204994" points="30,120 30,85.6 0,68.5 0,102.8 30,120 "/>
<polygon fill="#8AB3D5" points="60,68.5 30,51.5 0,68.5 30,85.6 "/>
</svg>
