<?xml version="1.0" encoding="utf-8"?>
<!-- Generator: Adobe Illustrator 18.1.1, SVG Export Plug-In . SVG Version: 6.00 Build 0)  -->
<!DOCTYPE svg PUBLIC "-//W3C//DTD SVG 1.1//EN" "http://www.w3.org/Graphics/SVG/1.1/DTD/svg11.dtd">
<svg version="1.1" id="Layer_1" xmlns="http://www.w3.org/2000/svg" xmlns:xlink="http://www.w3.org/1999/xlink" x="0px" y="0px"
	 viewBox="0 0 120 120" enable-background="new 0 0 120 120" xml:space="preserve">
<g>
	<polygon fill="#203365" points="68,85 68,91.8 81,92 81,85 	"/>
	<polygon fill="#203365" points="68,35 81,34.8 81,28 68,28 	"/>
	<polygon fill="#203365" points="96,28 96,35 113,35 113,85 96,85 96,92 120,92 120,28 	"/>
	<polygon fill="#203365" points="85,113 36,113 36,97 29,97 29,120 92,120 92,68 85,68 	"/>
	<polygon fill="#203365" points="64,68 25,68 25,28 0,28 0,92 64,92 	"/>
	<rect x="40" y="28" fill="#203365" width="24" height="25"/>
	<path fill="#203365" d="M29,64c21,0,42,0,63,0c0-21.2,0-42.8,0-64H29C29,21.2,29,42.8,29,64z M36,7h49v50H36V7z"/>
</g>
</svg>
