<?xml version="1.0" encoding="utf-8"?>
<!-- Generator: Adobe Illustrator 18.1.1, SVG Export Plug-In . SVG Version: 6.00 Build 0)  -->
<!DOCTYPE svg PUBLIC "-//W3C//DTD SVG 1.1//EN" "http://www.w3.org/Graphics/SVG/1.1/DTD/svg11.dtd">
<svg version="1.1" id="Layer_1" xmlns="http://www.w3.org/2000/svg" xmlns:xlink="http://www.w3.org/1999/xlink" x="0px" y="0px"
	 viewBox="0 0 120 120" enable-background="new 0 0 120 120" xml:space="preserve">
<g>
	<path fill="#676868" d="M100.8,29.9c1.5,0.7,2.2,1.8,2.2,3.5v69.7c0,1.2-0.5,2.2-1.5,3.1c-1,0.9-2.2,1.4-3.5,1.4
		c-3.8,0-5.7-1.5-5.7-4.5V38.4c0-1-0.5-1.7-1.5-2.2L40.7,9.3c-2.6-0.8-5.5-0.4-8.4,1.2c-3.6,1.7-6,3.5-6.9,5.5L76,44.3
		c1.5,0.7,2.2,1.8,2.2,3.5V116c0,1.8-0.7,3-2.2,3.5c-0.5,0.3-1.2,0.5-2,0.5c-1.2,0-2-0.2-2.5-0.5c-0.7-0.5-9-5.7-25.1-15.8
		c-16-10-24.8-15.4-26.3-16.3c-2.2-1.5-3.2-2.9-3.2-4.2l-0.7-65c0-2.3,0.6-4.5,1.7-6.5c2.3-3.8,6.5-7,12.7-9.6
		c6.1-2.6,10.9-2.9,14.4-1.1L100.8,29.9z"/>
</g>
</svg>
