<?xml version="1.0" encoding="utf-8"?>
<!-- Generator: Adobe Illustrator 18.1.1, SVG Export Plug-In . SVG Version: 6.00 Build 0)  -->
<!DOCTYPE svg PUBLIC "-//W3C//DTD SVG 1.1//EN" "http://www.w3.org/Graphics/SVG/1.1/DTD/svg11.dtd">
<svg version="1.1" id="Layer_1" xmlns="http://www.w3.org/2000/svg" xmlns:xlink="http://www.w3.org/1999/xlink" x="0px" y="0px"
	 viewBox="0 0 120 120" enable-background="new 0 0 120 120" xml:space="preserve">
<g>
	<path fill="#676868" d="M115,111.4c0,4.7-3.8,8.6-8.5,8.6H13.5c-4.6,0-8.5-3.9-8.5-8.6V8.6C5,3.9,8.8,0,13.5,0h93.1
		c4.6,0,8.5,3.9,8.5,8.6V111.4z M106.5,12.9c0-2.3-1.9-4.3-4.2-4.3H17.7c-2.3,0-4.2,1.9-4.2,4.3V30c0,2.3,1.9,4.3,4.2,4.3h84.6
		c2.3,0,4.2-1.9,4.2-4.3V12.9z M21.9,42.9c-4.7,0-8.5,3.8-8.5,8.6s3.8,8.6,8.5,8.6s8.5-3.8,8.5-8.6S26.6,42.9,21.9,42.9z M21.9,68.6
		c-4.7,0-8.5,3.8-8.5,8.6s3.8,8.6,8.5,8.6s8.5-3.8,8.5-8.6S26.6,68.6,21.9,68.6z M21.9,94.3c-4.7,0-8.5,3.8-8.5,8.6
		c0,4.8,3.8,8.6,8.5,8.6s8.5-3.8,8.5-8.6C30.4,98.1,26.6,94.3,21.9,94.3z M47.3,42.9c-4.7,0-8.5,3.8-8.5,8.6s3.8,8.6,8.5,8.6
		s8.5-3.8,8.5-8.6S52,42.9,47.3,42.9z M47.3,68.6c-4.7,0-8.5,3.8-8.5,8.6s3.8,8.6,8.5,8.6s8.5-3.8,8.5-8.6S52,68.6,47.3,68.6z
		 M47.3,94.3c-4.7,0-8.5,3.8-8.5,8.6c0,4.8,3.8,8.6,8.5,8.6s8.5-3.8,8.5-8.6C55.8,98.1,52,94.3,47.3,94.3z M72.7,42.9
		c-4.7,0-8.5,3.8-8.5,8.6S68,60,72.7,60s8.5-3.8,8.5-8.6S77.4,42.9,72.7,42.9z M72.7,68.6c-4.7,0-8.5,3.8-8.5,8.6s3.8,8.6,8.5,8.6
		s8.5-3.8,8.5-8.6S77.4,68.6,72.7,68.6z M72.7,94.3c-4.7,0-8.5,3.8-8.5,8.6c0,4.8,3.8,8.6,8.5,8.6s8.5-3.8,8.5-8.6
		C81.2,98.1,77.4,94.3,72.7,94.3z M98.1,42.9c-4.7,0-8.5,3.8-8.5,8.6s3.8,8.6,8.5,8.6c4.7,0,8.5-3.8,8.5-8.6S102.8,42.9,98.1,42.9z
		 M106.5,77.1c0-4.7-3.8-8.6-8.5-8.6c-4.6,0-8.5,3.9-8.5,8.6v25.7c0,4.7,3.8,8.6,8.5,8.6c4.6,0,8.5-3.9,8.5-8.6V77.1z"/>
</g>
</svg>
