<?xml version="1.0" encoding="utf-8"?>
<!-- Generator: Adobe Illustrator 18.1.1, SVG Export Plug-In . SVG Version: 6.00 Build 0)  -->
<!DOCTYPE svg PUBLIC "-//W3C//DTD SVG 1.1//EN" "http://www.w3.org/Graphics/SVG/1.1/DTD/svg11.dtd">
<svg version="1.1" id="Layer_1" xmlns="http://www.w3.org/2000/svg" xmlns:xlink="http://www.w3.org/1999/xlink" x="0px" y="0px"
	 viewBox="0 0 120 120" enable-background="new 0 0 120 120" xml:space="preserve">
<path fill="#4374BA" d="M88.3,120C88.3,120,88.3,120,88.3,120c-0.5,0-0.9,0-1.4-0.1c-12.9-1.7-25.7-6.9-36.9-14.8
	C26.7,88.4,10.7,62.7,7.3,36.2c-0.7-5.9-0.9-11.1-0.5-15.9c0.5-5.6,5.3-8.8,9.1-11.4l0.7-0.5C21.7,5,26.9,2.4,32,0.8
	C33.6,0.2,35,0,36.3,0c2.9,0,6.6,1.3,8,7.4c1.3,5.5,2.7,11.5,3.8,17.4c0.1,0.5,0.2,1,0.4,1.6c0.9,3.9,2.6,11-2.6,13.7
	c-0.8,0.4-1.8,0.8-2.8,1.3c-3,1.3-7.6,3.2-8.2,5.5c-1.1,4.4,1.6,8.3,4.4,12.5c0.3,0.4,0.5,0.8,0.8,1.2c3.5,5.3,6.9,9.7,10.3,13.5
	c0.4,0.4,0.8,0.9,1.3,1.4c3.3,3.8,10,11.6,14.9,11.6c0.8,0,2.1-0.2,3.4-1.9c0.5-0.7,1.1-1.4,1.6-2.2c2.3-3.3,5.2-7.4,10.2-7.8
	c0.2,0,0.3,0,0.5,0c2.4,0,5,1.2,7.3,2.2c0.7,0.3,1.4,0.6,1.9,0.8c2.5,1,4.6,1.8,6.5,2.6c4,1.7,7.9,3.7,12,6.1l0.2,0.1
	c0.1,0.1,0.2,0.2,0.4,0.2l0.1,0.1c0.1,0.1,0.3,0.2,0.4,0.3c1.1,0.9,1.8,2.2,2.1,3.7c1.4,6.6-5,13.7-8.8,17.9l-0.9,0.9
	C99.8,114.3,94.7,120,88.3,120z M36.3,4.9c-0.8,0-1.7,0.2-2.8,0.5c-4.7,1.5-9.4,3.9-14.1,7.1L18.7,13c-3.3,2.2-6.6,4.5-6.9,7.8
	c-0.4,4.4-0.3,9.3,0.4,14.8c3.2,25.1,18.4,49.6,40.7,65.5c10.5,7.5,22.5,12.3,34.7,14c0.2,0,0.5,0,0.7,0c4.2,0,8.5-4.8,11.6-8.3
	l0.9-1c3-3.3,8.5-9.4,7.6-13.6l0-0.2c0-0.2-0.1-0.4-0.4-0.6l1.3-2.1l-1.4,2l-0.2-0.2c-3.9-2.3-7.7-4.2-11.5-5.8
	c-1.8-0.8-3.8-1.6-6.2-2.5c-0.7-0.3-1.4-0.6-2.2-0.9c-1.8-0.8-4.1-1.8-5.4-1.8c-2.7,0.2-4.6,2.9-6.6,5.7c-0.6,0.8-1.2,1.7-1.8,2.4
	C72,90.7,69.5,92,66.7,92c0,0,0,0,0,0c-7.1,0-14.3-8.3-18.6-13.2c-0.4-0.5-0.9-1-1.2-1.4c-3.6-4-7.1-8.6-10.8-14.1
	c-0.3-0.4-0.5-0.8-0.8-1.1c-3-4.5-6.8-10-5.2-16.5c1.2-4.7,6.9-7.1,11-8.9c0.9-0.4,1.8-0.8,2.5-1.1c1.7-0.9,0.6-5.8,0-8.1
	c-0.2-0.7-0.3-1.3-0.4-1.8c-1.1-5.9-2.5-11.8-3.8-17.2C38.7,4.9,37.2,4.9,36.3,4.9z"/>
</svg>
