<?xml version="1.0" encoding="utf-8"?>
<!-- Generator: Adobe Illustrator 18.1.1, SVG Export Plug-In . SVG Version: 6.00 Build 0)  -->
<!DOCTYPE svg PUBLIC "-//W3C//DTD SVG 1.1//EN" "http://www.w3.org/Graphics/SVG/1.1/DTD/svg11.dtd">
<svg version="1.1" id="Layer_1" xmlns="http://www.w3.org/2000/svg" xmlns:xlink="http://www.w3.org/1999/xlink" x="0px" y="0px"
	 viewBox="0 0 120 120" enable-background="new 0 0 120 120" xml:space="preserve">
<g>
	<path fill="#676868" d="M118,10.6c1.3-1.8,2-1.6,2,0.5v94.3H1.9c-1,0-1.6-0.3-1.8-0.9c-0.2-0.6,0-1.3,0.6-2.1l28.2-35.4
		c1.6-1.8,3.3-1.9,4.9-0.2l9.1,8.1c0.8,0.7,1.7,0.9,2.6,0.9c0.9-0.1,1.6-0.5,2.1-1.4l19.4-29.2c1.3-2.1,2.9-2.3,4.7-0.5l13.7,12.8
		c1.6,1.6,3.2,1.5,4.7-0.5L118,10.6z"/>
</g>
</svg>
