<?xml version="1.0" encoding="utf-8"?>
<!-- Generator: Adobe Illustrator 18.1.1, SVG Export Plug-In . SVG Version: 6.00 Build 0)  -->
<!DOCTYPE svg PUBLIC "-//W3C//DTD SVG 1.1//EN" "http://www.w3.org/Graphics/SVG/1.1/DTD/svg11.dtd">
<svg version="1.1" id="Layer_1" xmlns="http://www.w3.org/2000/svg" xmlns:xlink="http://www.w3.org/1999/xlink" x="0px" y="0px"
	 viewBox="0 0 120 120" enable-background="new 0 0 120 120" xml:space="preserve">
<g>
	<polygon fill="#FFFFFF" points="70,21 70,7 48,7 48,21 12,21 12,114 105,114 105,21 	"/>
	<g>
		<path fill="#676868" d="M108.2,15h-31C75.9,7,69.3,0.8,61,0.1C60.5,0,60,0,59.5,0s-1,0-1.5,0.1C49.7,0.8,43.1,7,41.8,15h-31
			C8.7,15,7,16.7,7,18.8v97.5c0,2.1,1.7,3.8,3.8,3.8h97.5c2.1,0,3.8-1.7,3.8-3.8V18.8C112,16.7,110.3,15,108.2,15z M59.5,10
			c4.4,0,8,3.6,8,8s-3.6,8-8,8s-8-3.6-8-8S55.1,10,59.5,10z M101,109H18V26h12v7.8c0,2.1,1.2,4.2,3.2,4.2h52.5
			c2.1,0,3.2-2.2,3.2-4.2V26h12V109z"/>
		<rect x="28" y="51" fill="#676868" width="64" height="5"/>
		<rect x="28" y="69" fill="#676868" width="64" height="5"/>
		<rect x="28" y="87" fill="#676868" width="64" height="5"/>
	</g>
</g>
</svg>
