<?xml version="1.0" encoding="utf-8"?>
<!-- Generator: Adobe Illustrator 18.1.1, SVG Export Plug-In . SVG Version: 6.00 Build 0)  -->
<!DOCTYPE svg PUBLIC "-//W3C//DTD SVG 1.1//EN" "http://www.w3.org/Graphics/SVG/1.1/DTD/svg11.dtd">
<svg version="1.1" id="Layer_1" xmlns="http://www.w3.org/2000/svg" xmlns:xlink="http://www.w3.org/1999/xlink" x="0px" y="0px"
	 viewBox="0 0 120 120" enable-background="new 0 0 120 120" xml:space="preserve">
<g>
	<path fill="#676868" d="M120,68.8c0,1.2-0.9,2.6-2.2,2.8l-14.5,2.2c-0.9,2.5-1.8,4.8-3,7.1c2.7,3.8,5.5,7.3,8.4,10.8
		c0.5,0.5,0.8,1.2,0.8,2c0,0.7-0.2,1.3-0.7,1.8c-1.9,2.5-12.4,14-15.1,14c-0.7,0-1.4-0.3-2-0.7l-10.8-8.4c-2.3,1.2-4.7,2.2-7.1,3
		c-0.5,4.8-1,9.8-2.3,14.5c-0.3,1.3-1.4,2.2-2.8,2.2H51.3c-1.4,0-2.7-1-2.8-2.3l-2.2-14.4c-2.4-0.8-4.8-1.7-7-2.9l-11,8.4
		c-0.5,0.5-1.2,0.7-2,0.7c-0.7,0-1.4-0.3-2-0.9c-4.1-3.7-9.6-8.6-12.9-13.1c-0.4-0.5-0.5-1.2-0.5-1.8c0-0.7,0.2-1.3,0.6-1.8
		c2.7-3.6,5.5-7,8.2-10.7c-1.3-2.5-2.4-5.1-3.2-7.7L2.3,71.3C0.9,71.1,0,69.8,0,68.5V51.2c0-1.2,0.9-2.6,2.1-2.8l14.5-2.2
		c0.8-2.5,1.8-4.8,3-7.2c-2.7-3.8-5.5-7.3-8.4-10.8c-0.5-0.5-0.8-1.2-0.8-1.9c0-0.7,0.3-1.3,0.7-1.8c1.9-2.6,12.4-14,15.1-14
		c0.7,0,1.4,0.3,2,0.8l10.8,8.4c2.3-1.2,4.7-2.2,7.1-3c0.5-4.8,1-9.8,2.3-14.5C48.8,0.9,49.9,0,51.3,0h17.3c1.4,0,2.7,1,2.8,2.3
		l2.2,14.4c2.4,0.8,4.8,1.7,7,2.9l11.1-8.4c0.5-0.5,1.2-0.7,1.9-0.7c0.7,0,1.4,0.3,2,0.8c4.1,3.8,9.6,8.7,12.9,13.3
		c0.4,0.5,0.5,1.1,0.5,1.7c0,0.7-0.2,1.3-0.6,1.8c-2.7,3.6-5.5,7-8.2,10.7c1.3,2.5,2.4,5.1,3.2,7.7l14.3,2.2
		c1.3,0.2,2.3,1.5,2.3,2.8V68.8z M60,40c-11,0-20,9-20,20s9,20,20,20s20-9,20-20S71,40,60,40z"/>
</g>
</svg>
