<?xml version="1.0" encoding="utf-8"?>
<!-- Generator: Adobe Illustrator 18.1.1, SVG Export Plug-In . SVG Version: 6.00 Build 0)  -->
<!DOCTYPE svg PUBLIC "-//W3C//DTD SVG 1.1//EN" "http://www.w3.org/Graphics/SVG/1.1/DTD/svg11.dtd">
<svg version="1.1" id="Layer_1" xmlns="http://www.w3.org/2000/svg" xmlns:xlink="http://www.w3.org/1999/xlink" x="0px" y="0px"
	 viewBox="0 0 120 120" enable-background="new 0 0 120 120" xml:space="preserve">
<g>
	<path fill="#676868" d="M120,15.7v87.8c0,3.2-1.1,5.9-3.4,8.1c-2.2,2.2-5,3.4-8.1,3.4h-97c-3.2,0-5.9-1.1-8.1-3.4
		c-2.2-2.2-3.4-5-3.4-8.1V15.7c0-3.2,1.1-5.9,3.4-8.1c2.2-2.2,5-3.4,8.1-3.4h97c3.2,0,5.9,1.1,8.1,3.4C118.9,9.8,120,12.5,120,15.7z
		 M11.5,105.8h43.8V22.7H9.2v80.8c0,0.6,0.2,1.2,0.6,1.7C10.3,105.7,10.8,105.9,11.5,105.8z M110.8,103.5V22.7H64.7v83.1h43.8
		c0.6,0,1.2-0.2,1.7-0.6C110.7,104.7,110.9,104.2,110.8,103.5z"/>
</g>
</svg>
