<?xml version="1.0" encoding="utf-8"?>
<!-- Generator: Adobe Illustrator 18.1.1, SVG Export Plug-In . SVG Version: 6.00 Build 0)  -->
<!DOCTYPE svg PUBLIC "-//W3C//DTD SVG 1.1//EN" "http://www.w3.org/Graphics/SVG/1.1/DTD/svg11.dtd">
<svg version="1.1" id="Layer_1" xmlns="http://www.w3.org/2000/svg" xmlns:xlink="http://www.w3.org/1999/xlink" x="0px" y="0px"
	 viewBox="0 0 120 120" enable-background="new 0 0 120 120" xml:space="preserve">
<g>
	<path fill="#C3996B" d="M24.1,22.1C24.1,9.9,34,0,46.1,0c12.2,0,22,10,22,22.1c0,12.3-9.9,22.1-22,22.1
		C34,44.3,24.1,34.4,24.1,22.1z"/>
	<g>
		<g>
			<path fill="#4374BA" d="M104.2,70.5L90.1,56.3c-0.3-0.3-0.7-0.5-1.3-0.5c-0.2,0-0.8,0-1.3,0.5L43,101.2l0,0.1
				c-0.2,0.3-0.5,0.7-0.5,1.2l-0.9,15c-0.1,0.5-0.5,1.1-0.1,1.6c0.2,0.2,0.5,0.5,0.5,0.6v-0.2l15.6-1c0.5,0,1.3-0.2,1.6-0.5L104,73
				c0.3-0.3,0.6-0.7,0.6-1.3C104.6,71.5,104.6,71,104.2,70.5z M57.4,114.7l-6.8,0.4c-0.3-2.8-2.3-4.7-5-5l0.4-6.9l35.7-36.1l4.8,4.8
				l-33.9,34.1c-0.6,0.6-0.6,1.5,0,2.1c0.2,0.3,0.6,0.4,1,0.4c0.4,0,0.8-0.1,1.1-0.4l33.9-34.2l4.6,4.6L57.4,114.7z M95.3,76.6
				L83.8,65.1l4.9-5l11.5,11.5L95.3,76.6z"/>
			<path fill="#4374BA" d="M43.5,120l-0.4-0.1c-0.6-0.1-1.1-0.6-1.2-0.7c-0.5-0.5-0.7-1.2-0.6-1.8l0.9-15c0-0.6,0.3-1,0.5-1.3
				l0.1-0.1l44.6-44.9c0.5-0.5,1.2-0.6,1.5-0.6c0.7,0,1.2,0.3,1.5,0.6l14.1,14.2c0.4,0.4,0.6,0.9,0.6,1.5c0,0.6-0.3,1.2-0.6,1.5
				l-44.6,44.8c-0.4,0.4-0.9,0.6-1.5,0.6l-14.7,1V120z M88.8,56.1c-0.2,0-0.7,0-1,0.4l-44.6,44.9c-0.2,0.3-0.4,0.6-0.4,1l-0.9,15.1
				c-0.1,0.4,0,0.9,0.4,1.3c0.1,0.1,0.3,0.3,0.5,0.4v-0.1l15.3-1c0.5,0,0.8-0.1,1.1-0.4l44.6-44.8c0.2-0.2,0.4-0.6,0.4-1
				c0-0.3-0.1-0.7-0.4-1L89.9,56.6C89.7,56.4,89.2,56.1,88.8,56.1z M50.3,115.5l0-0.3c-0.3-2.6-2.2-4.5-4.7-4.7l-0.3,0l0.5-7.3
				l0.1-0.1l35.9-36.3l5.2,5.2l-0.2,0.2l-33.9,34.1c-0.5,0.5-0.5,1.2,0,1.7c0.2,0.3,0.6,0.3,0.8,0.3c0.4,0,0.7-0.1,0.9-0.3
				l34.2-34.4l5,5l-0.2,0.2L57.5,115L50.3,115.5z M45.9,109.9c2.6,0.3,4.5,2.2,5,4.9l6.4-0.4l35.5-35.7l-4.1-4.1l-33.7,33.9
				c-0.3,0.3-0.8,0.5-1.3,0.5c-0.6,0-1-0.2-1.3-0.5c-0.7-0.7-0.7-1.8,0-2.5L86,72l-4.3-4.3l-35.4,35.8L45.9,109.9z M95.3,77
				L83.4,65.1l5.4-5.4l11.9,12L95.3,77z M84.2,65.1l11,11l4.4-4.5l-11-11.1L84.2,65.1z"/>
		</g>
		<g>
			<path fill="#4374BA" d="M43.4,119.7c-0.1,0-0.1,0-0.2,0v0H43.4z"/>
			<polygon fill="#4374BA" points="43.4,120 42.9,120 42.9,119.3 43.4,119.3 43.4,119.6 43.5,119.6 43.4,119.6 			"/>
		</g>
	</g>
	<path fill="#12508A" d="M76,60.6C72.7,51.6,62.6,44,47.4,44C28.4,44,15,55.9,15,68.7C15,81.3,15,90,15,90h31.3L76,60.6z"/>
</g>
</svg>
