<?xml version="1.0" encoding="utf-8"?>
<!-- Generator: Adobe Illustrator 18.1.1, SVG Export Plug-In . SVG Version: 6.00 Build 0)  -->
<!DOCTYPE svg PUBLIC "-//W3C//DTD SVG 1.1//EN" "http://www.w3.org/Graphics/SVG/1.1/DTD/svg11.dtd">
<svg version="1.1" id="Layer_1" xmlns="http://www.w3.org/2000/svg" xmlns:xlink="http://www.w3.org/1999/xlink" x="0px" y="0px"
	 viewBox="0 0 120 120" enable-background="new 0 0 120 120" xml:space="preserve">
<path fill="#4374BA" d="M91.2,65c-3.2-2.8-7.9-5.9-14.5-8C85.3,51.5,91,41.9,91,31C91,13.9,77.1,0,60,0S29,13.9,29,31
	c0,11.2,6,21.1,15,26.5c-5.1,1.7-9.5,4.1-13.5,7.1C22.4,71,18,79.7,18,88.5V120h84V87.8C102,79.4,98.2,71.1,91.2,65z M36.2,31
	C36.2,17.9,46.9,7.3,60,7.3S83.8,17.9,83.8,31c0,13.1-10.7,23.8-23.8,23.8S36.2,44.1,36.2,31z M95,113H25V88.5
	c0-14.6,16.3-26.4,36.6-26.4c21,0,33.4,13.1,33.4,25.7V113z"/>
</svg>
