<?xml version="1.0" encoding="utf-8"?>
<!-- Generator: Adobe Illustrator 18.1.1, SVG Export Plug-In . SVG Version: 6.00 Build 0)  -->
<!DOCTYPE svg PUBLIC "-//W3C//DTD SVG 1.1//EN" "http://www.w3.org/Graphics/SVG/1.1/DTD/svg11.dtd">
<svg version="1.1" id="Layer_1" xmlns="http://www.w3.org/2000/svg" xmlns:xlink="http://www.w3.org/1999/xlink" x="0px" y="0px"
	 viewBox="0 0 120 120" enable-background="new 0 0 120 120" xml:space="preserve">
<g>
	<path fill="#676868" d="M116.2,44.6c3,0.8,4.2,2.6,3.6,5.5l-18,66.6c-0.3,1.3-1,2.2-2.2,2.8c-1.1,0.6-2.3,0.7-3.6,0.4l-48.6-13.2
		c-1.3-0.3-2.2-1-2.9-2.2c-0.6-1.1-0.8-2.2-0.5-3.4l2.9-11l-21.6,5.8c-3.2,0.8-5.2-0.2-6-3.1L0.2,20.6c-0.8-2.9,0.3-4.8,3.4-5.8
		L58,0.2c1.3-0.3,2.5-0.2,3.6,0.4c1.1,0.6,1.8,1.5,2.2,2.8l7.9,29.2L116.2,44.6z M9.8,21.8l17.3,64.9l47-12.7L56.8,9.4L9.8,21.8z
		 M94,110.7l15.8-59l-35.7-9.8l9.1,33.8c0.8,2.7-0.3,4.6-3.4,5.5l-23.5,6.2l-3.1,12.2L94,110.7z"/>
</g>
</svg>
