<?xml version="1.0" encoding="utf-8"?>
<!-- Generator: Adobe Illustrator 18.1.1, SVG Export Plug-In . SVG Version: 6.00 Build 0)  -->
<!DOCTYPE svg PUBLIC "-//W3C//DTD SVG 1.1//EN" "http://www.w3.org/Graphics/SVG/1.1/DTD/svg11.dtd">
<svg version="1.1" id="Layer_1" xmlns="http://www.w3.org/2000/svg" xmlns:xlink="http://www.w3.org/1999/xlink" x="0px" y="0px"
	 viewBox="0 0 120 120" enable-background="new 0 0 120 120" xml:space="preserve">
<path fill="#4374BA" stroke="#4374BA" stroke-width="1.1863" stroke-miterlimit="10" d="M111.4,32.1L88,8.6
	c-0.5-0.5-1.1-0.7-1.7-0.7S85,8.1,84.5,8.6L10.1,83c-0.4,0.4-0.7,1-0.7,1.6L8,109.5c0,0.7,0.2,1.4,0.7,1.9c0.5,0.5,1.1,0.7,1.7,0.7
	c0,0,0.1,0,0.1,0l24.9-1.5c0.6,0,1.2-0.3,1.6-0.7l74.4-74.4c0.5-0.5,0.7-1.1,0.7-1.7S111.9,32.5,111.4,32.1z M34.3,105.8l-11.8,0.7
	c-0.1-5.1-3.8-8.8-8.9-9l0.7-11.7l59.9-59.9l8.3,8.3L25.8,90.8c-1,1-1,2.5,0,3.5c0.5,0.5,1.1,0.7,1.7,0.7c0.6,0,1.3-0.2,1.7-0.7
	l56.7-56.7l8.3,8.3L34.3,105.8z M97.6,42.4l-20-20l8.6-8.6l20,20L97.6,42.4z"/>
</svg>
