<?xml version="1.0" encoding="utf-8"?>
<!-- Generator: Adobe Illustrator 18.1.1, SVG Export Plug-In . SVG Version: 6.00 Build 0)  -->
<!DOCTYPE svg PUBLIC "-//W3C//DTD SVG 1.1//EN" "http://www.w3.org/Graphics/SVG/1.1/DTD/svg11.dtd">
<svg version="1.1" id="Layer_1" xmlns="http://www.w3.org/2000/svg" xmlns:xlink="http://www.w3.org/1999/xlink" x="0px" y="0px"
	 viewBox="0 0 120 120" enable-background="new 0 0 120 120" xml:space="preserve">
<g>
	<path fill="#F79421" d="M51.9,66.9c-7,1.6-12.3,5.2-17.6,10.6c-0.7,0.7-1.2,1.7-1.4,2.7c-0.5,2.6,1,5.5,3.5,6.7
		c2.3,1.2,5,0.7,7-1.3c3.2-3.1,6.1-5.4,10.2-6.6L51.9,66.9z"/>
	<path fill="#F79421" d="M71.6,66.9L69.9,79c4.1,1.2,7.1,3.5,10.3,6.7c1.2,1.1,2.5,1.7,4.2,1.7c2.8-0.1,4.6-1.5,5.7-3.9
		c1-2.3,0.7-4.6-1.2-6.4C83.6,71.9,78.3,68.5,71.6,66.9z"/>
	<path fill="#F79421" d="M49,44.5c-11.6,2.3-21.2,7.7-29.8,16c-2.5,2.4-2.5,5.8,0,8.5c2.2,2.4,5.9,2.6,8.3,0.4
		c1-0.9,1.9-1.8,2.9-2.6c6.4-5.2,12.9-8.7,20.3-10.3L49,44.5z"/>
	<path fill="#F79421" d="M74.8,44.4L73,56.5c8.9,1.9,15.9,6.1,22.6,12.4c1.2,1.2,2.6,1.9,4.2,1.9c2.6,0,4.3-1.2,5.5-3.2
		c1.4-2.2,1-5.5-1.6-7.9C94.8,51.7,85.6,46.5,74.8,44.4z"/>
	<path fill="#F79421" d="M48,33.9V21.5c-16,2.4-30.6,9.4-43.7,20.9C2.9,43.7,3,45,0,46.9c0,0.7,0,1.5,0,2.2c0,0.1,1,0.3,1.1,0.4
		c1.1,4.1,6.9,6.8,11.1,2.6c1.6-1.6,3.8-3.1,5.6-4.5C27.2,40.6,36,35.9,48,33.9z"/>
	<path fill="#F79421" d="M115.8,41.1C103.6,30.6,90,23.9,75,21.6v12.3c5,0.9,9.1,2.3,13.7,4.2c8.4,3.4,16,8.2,22.5,14.5
		c2.5,2.3,5.3,2.3,7.5-0.2c0.8-0.9,0.2-2.1,1.2-3.2c0-0.8,0-1.7,0-2.5C119,44.2,117.6,42.7,115.8,41.1z"/>
	<polygon fill="#F79421" points="66,86 72,38.6 72,12 50,12 50,38.6 57.4,86 	"/>
	<path fill="#F79421" d="M61.3,88.7c-5,0.3-8.9,4.1-9.3,9c-0.4,4.6,2.8,8.9,7.4,10c0.7,0.2,1.3,0.2,2,0.2c0.2,0,0.5,0,0.7,0
		c0.2,0,0.3,0,0.5,0c5.8-0.5,10-6,8.7-11.7C70.3,91.8,65.9,88.5,61.3,88.7z"/>
</g>
</svg>
