<?xml version="1.0" encoding="utf-8"?>
<!-- Generator: Adobe Illustrator 18.1.1, SVG Export Plug-In . SVG Version: 6.00 Build 0)  -->
<!DOCTYPE svg PUBLIC "-//W3C//DTD SVG 1.1//EN" "http://www.w3.org/Graphics/SVG/1.1/DTD/svg11.dtd">
<svg version="1.1" id="Layer_1" xmlns="http://www.w3.org/2000/svg" xmlns:xlink="http://www.w3.org/1999/xlink" x="0px" y="0px"
	 viewBox="0 0 120 120" enable-background="new 0 0 120 120" xml:space="preserve">
<path fill="#4374BA" d="M60,0C26.9,0,0,26.9,0,60c0,33.1,26.9,60,60,60c33.1,0,60-26.9,60-60C120,26.9,93.1,0,60,0z M5,60
	c0-6.3,1.1-12.4,3-18H39v24.2l-9.4-7.3l-0.7,0.9l-0.1-0.1L15,77H7.7C6,71.6,5,65.9,5,60z M61.7,80l-1.9,2.4l-3-2.4H61.7z M81,55.7
	V42h10.8L81,55.7z M78,59.5L64.1,77H53l-11-8.5L42,42h36V59.5z M12.6,80l-2.5,3.1c-0.5-1-0.9-2-1.3-3.1H12.6z M103.8,26.8L94.2,39
	H81V9.2C90.1,13,97.9,19.1,103.8,26.8z M78,8v31H42l0-30.9c5.6-2,11.7-3,18-3C66.3,5,72.4,6.1,78,8z M39,9.2V39H9.2
	C14.8,25.5,25.5,14.8,39,9.2z"/>
</svg>
