<?xml version="1.0" encoding="utf-8"?>
<!-- Generator: Adobe Illustrator 18.1.1, SVG Export Plug-In . SVG Version: 6.00 Build 0)  -->
<!DOCTYPE svg PUBLIC "-//W3C//DTD SVG 1.1//EN" "http://www.w3.org/Graphics/SVG/1.1/DTD/svg11.dtd">
<svg version="1.1" id="Layer_1" xmlns="http://www.w3.org/2000/svg" xmlns:xlink="http://www.w3.org/1999/xlink" x="0px" y="0px"
	 viewBox="0 0 120 120" enable-background="new 0 0 120 120" xml:space="preserve">
<line fill="#FFFFFF" x1="40.4" y1="4" x2="40.4" y2="116"/>
<polygon fill="#666666" points="42,116 39,116 39,4 42,4 "/>
<line fill="#FFFFFF" x1="77.2" y1="4" x2="77.2" y2="116.8"/>
<rect x="78" y="5" fill="#666666" width="3" height="111"/>
<line fill="#FFFFFF" x1="3.5" y1="77.5" x2="116.7" y2="77.5"/>
<polygon fill="#666666" points="115,80 5,80 4,77 116,77 "/>
<line fill="#FFFFFF" x1="3.5" y1="41.1" x2="115.9" y2="41.1"/>
<polygon fill="#666666" points="116,42 4,42 5,39 115,39 "/>
<path opacity="0.8" fill="#1CADE4" d="M7.8,87.6c9.9,16.8,19.8,24.2,39.2,29.5c23,6.2,44.9-2.5,60.4-22.5
	c14.2-18.5,13.5-51.3,0.2-66.3l0,0l-6.3,7.7L61.8,85l-33-25.3L7.6,86.3l-0.3,0.3L7.8,87.6z"/>
<polygon fill="#231F20" points="11,92.7 7.3,86.5 29.6,58.9 59.9,82.4 106.2,23.8 109.6,31.5 61.1,92.1 30.9,68.7 "/>
<path fill="#666666" d="M60,0C26.9,0,0,26.9,0,60c0,33.1,26.9,60,60,60c33.1,0,60-26.9,60-60C120,26.9,93.1,0,60,0z M115,60
	c0,30.3-24.7,55-55,55C29.7,115,5,90.3,5,60C5,29.7,29.7,5,60,5C90.3,5,115,29.7,115,60z"/>
</svg>
