<?xml version="1.0" encoding="utf-8"?>
<!-- Generator: Adobe Illustrator 18.1.1, SVG Export Plug-In . SVG Version: 6.00 Build 0)  -->
<!DOCTYPE svg PUBLIC "-//W3C//DTD SVG 1.1//EN" "http://www.w3.org/Graphics/SVG/1.1/DTD/svg11.dtd">
<svg version="1.1" id="Layer_1" xmlns="http://www.w3.org/2000/svg" xmlns:xlink="http://www.w3.org/1999/xlink" x="0px" y="0px"
	 viewBox="0 0 120 120" enable-background="new 0 0 120 120" xml:space="preserve">
<path fill="#4374BA" d="M90.1,52.5V30C90.1,13.5,76.6,0,60,0C43.4,0,29.9,13.5,29.9,30v22.5c-8.3,0-15,6.7-15,15V105
	c0,8.3,6.7,15,15,15h60.1c8.3,0,15-6.7,15-15V67.5C105.1,59.2,98.4,52.5,90.1,52.5z M63.8,88.9v12.4c0,2.1-1.7,3.8-3.8,3.8
	s-3.8-1.7-3.8-3.8V88.9c-2.2-1.3-3.8-3.6-3.8-6.4c0-4.1,3.4-7.5,7.5-7.5s7.5,3.4,7.5,7.5C67.5,85.2,66,87.5,63.8,88.9z M75,52.5H45
	V30c0-8.3,6.7-15,15-15c8.3,0,15,6.7,15,15V52.5z"/>
</svg>
