<?xml version="1.0" encoding="utf-8"?>
<!-- Generator: Adobe Illustrator 18.1.1, SVG Export Plug-In . SVG Version: 6.00 Build 0)  -->
<!DOCTYPE svg PUBLIC "-//W3C//DTD SVG 1.1//EN" "http://www.w3.org/Graphics/SVG/1.1/DTD/svg11.dtd">
<svg version="1.1" id="Layer_1" xmlns="http://www.w3.org/2000/svg" xmlns:xlink="http://www.w3.org/1999/xlink" x="0px" y="0px"
	 viewBox="0 0 120 120" enable-background="new 0 0 120 120" xml:space="preserve">
<g>
	<linearGradient id="SVGID_1_" gradientUnits="userSpaceOnUse" x1="60" y1="-2.628440e-09" x2="60" y2="120">
		<stop  offset="0" style="stop-color:#C7DC6E"/>
		<stop  offset="0" style="stop-color:#A7C361"/>
		<stop  offset="0" style="stop-color:#7EA752"/>
		<stop  offset="0" style="stop-color:#5F9549"/>
		<stop  offset="0" style="stop-color:#458A43"/>
		<stop  offset="0" style="stop-color:#338340"/>
		<stop  offset="0" style="stop-color:#2C8140"/>
	</linearGradient>
	<path fill="url(#SVGID_1_)" d="M120,60c0,33.1-26.9,60-60,60C26.9,120,0,93.1,0,60C0,26.9,26.9,0,60,0C93.1,0,120,26.9,120,60z"/>
	<g>
		<path fill="#231F20" d="M56.4,82.7l0-20.1c-7.1-1.8-12.4-4.5-15.7-8.1c-3.3-3.6-5-8.1-5-13.3c0-5.3,1.9-9.7,5.7-13.2
			c3.8-3.6,8.8-5.6,15.1-6.2V17l7.9,0v4.8c5.8,0.6,10.4,2.3,13.8,5.2c3.4,2.9,5.6,6.7,6.6,11.5l-13.8,1.6c-0.8-3.8-3-6.3-6.6-7.7
			v18.8c8.7,2.1,14.7,4.8,17.9,8.1C85.4,62.6,87,66.9,87,72c0,5.8-2,10.7-6,14.7c-4,4-9.5,6.4-16.6,7.3l0,9h-7.9v-8.8
			C50.1,93.6,45,91.5,41,88c-3.9-3.5-6.4-8.3-7.5-14.7L47.8,72c0.6,2.6,1.7,4.8,3.3,6.6C52.7,80.5,54.4,81.9,56.4,82.7z M56.4,32.2
			c-2.2,0.6-3.9,1.7-5.1,3.3c-1.3,1.5-1.9,3.2-1.9,5.1c0,1.7,0.6,3.3,1.8,4.7c1.2,1.5,2.9,2.6,5.3,3.5L56.4,32.2z M64.3,83.4
			c2.7-0.5,5-1.6,6.7-3.3c1.7-1.8,2.6-3.9,2.6-6.3c0-2.1-0.7-4-2.2-5.6c-1.4-1.6-3.8-2.7-7.1-3.6L64.3,83.4z"/>
	</g>
</g>
</svg>
