<?xml version="1.0" encoding="utf-8"?>
<!-- Generator: Adobe Illustrator 18.1.1, SVG Export Plug-In . SVG Version: 6.00 Build 0)  -->
<!DOCTYPE svg PUBLIC "-//W3C//DTD SVG 1.1//EN" "http://www.w3.org/Graphics/SVG/1.1/DTD/svg11.dtd">
<svg version="1.1" id="Layer_1" xmlns="http://www.w3.org/2000/svg" xmlns:xlink="http://www.w3.org/1999/xlink" x="0px" y="0px"
	 viewBox="0 0 120 120" enable-background="new 0 0 120 120" xml:space="preserve">
<g>
	<path fill="#4374BA" d="M60,0C42.1,0,27.6,14.5,27.6,32.4c0,4.3,0.6,7.8,1.9,10.7L60,120l31.1-78.6l0.9-3.7
		c0.3-1.6,0.4-3.4,0.4-5.3C92.4,14.5,77.9,0,60,0z M86.7,39.4l-0.1,0.2L59.9,107L33.9,41.2l0-0.1c-1-2.3-1.5-5.1-1.5-8.7
		C32.4,17.2,44.8,4.8,60,4.8c15.2,0,27.6,12.4,27.6,27.6C87.6,35.2,87.3,37.5,86.7,39.4z"/>
	<path fill="#4374BA" d="M60,19c-8.5,0-15.4,6.9-15.4,15.4c0,8.5,6.9,15.4,15.4,15.4s15.4-6.9,15.4-15.4C75.4,25.9,68.5,19,60,19z
		 M60,45c-5.8,0-10.6-4.8-10.6-10.6c0-5.8,4.8-10.6,10.6-10.6s10.6,4.8,10.6,10.6C70.6,40.2,65.8,45,60,45z"/>
</g>
</svg>
