<?xml version="1.0" encoding="utf-8"?>
<!-- Generator: Adobe Illustrator 18.1.1, SVG Export Plug-In . SVG Version: 6.00 Build 0)  -->
<!DOCTYPE svg PUBLIC "-//W3C//DTD SVG 1.1//EN" "http://www.w3.org/Graphics/SVG/1.1/DTD/svg11.dtd">
<svg version="1.1" id="Layer_1" xmlns="http://www.w3.org/2000/svg" xmlns:xlink="http://www.w3.org/1999/xlink" x="0px" y="0px"
	 viewBox="0 0 120 120" enable-background="new 0 0 120 120" xml:space="preserve">
<g>
	<path fill="#4374BA" d="M13.5,114.3l6.1-26.6C7.1,78.8,0,66.2,0,52.9c0-26,26.9-47.2,60-47.2c33.1,0,60,21.2,60,47.2
		s-26.9,47.2-60,47.2c-4.1,0-8.3-0.3-12.4-1L13.5,114.3z M60,12.4c-29.3,0-53.2,18.2-53.2,40.5c0,11.7,6.7,22.8,18.4,30.6l2,1.3
		l-4.1,17.9l23.7-10.6l1,0.2c4,0.7,8.1,1.1,12.2,1.1c29.3,0,53.2-18.2,53.2-40.5S89.3,12.4,60,12.4z"/>
</g>
</svg>
