<?xml version="1.0" encoding="utf-8"?>
<!-- Generator: Adobe Illustrator 18.1.1, SVG Export Plug-In . SVG Version: 6.00 Build 0)  -->
<!DOCTYPE svg PUBLIC "-//W3C//DTD SVG 1.1//EN" "http://www.w3.org/Graphics/SVG/1.1/DTD/svg11.dtd">
<svg version="1.1" id="Layer_1" xmlns="http://www.w3.org/2000/svg" xmlns:xlink="http://www.w3.org/1999/xlink" x="0px" y="0px"
	 viewBox="0 0 120 120" enable-background="new 0 0 120 120" xml:space="preserve">
<path fill="#FFFBD6" d="M118,100.9c0,9.4-7.6,17-17,17H19c-9.4,0-17-7.6-17-17V19.1C2,9.7,9.6,2,19,2h81.9c9.4,0,17,7.6,17,17V100.9
	z"/>
<path fill="#676868" d="M100.6,0H19.4C8.7,0,0,8.7,0,19.4v81.2C0,111.3,8.7,120,19.4,120h81.2c10.7,0,19.4-8.3,19.4-19V19.4
	C120,8.7,111.3,0,100.6,0z M18,36v13H5V36H18z M5,76h13v9H5V76z M5,73v-9h13v9H5z M5,61v-9h13v9H5z M5,88h13v9H5V88z M24,88h91v9H24
	V88z M24,85v-9h91v9H24z M24,73v-9h91v9H24z M24,61v-9h91v9H24z M24,49V36h91v13H24z M5,100.6V100h13v14.9
	C10.7,114.2,5,108.1,5,100.6z M100.6,115H24v-15h91v1C115,108.9,108.5,115,100.6,115z"/>
</svg>
