<?xml version="1.0" encoding="utf-8"?>
<!-- Generator: Adobe Illustrator 18.1.1, SVG Export Plug-In . SVG Version: 6.00 Build 0)  -->
<!DOCTYPE svg PUBLIC "-//W3C//DTD SVG 1.1//EN" "http://www.w3.org/Graphics/SVG/1.1/DTD/svg11.dtd">
<svg version="1.1" id="Layer_1" xmlns="http://www.w3.org/2000/svg" xmlns:xlink="http://www.w3.org/1999/xlink" x="0px" y="0px"
	 viewBox="0 0 120 120" enable-background="new 0 0 120 120" xml:space="preserve">
<path fill="#4374BA" d="M100.6,0H19.4C8.7,0,0,8.7,0,19.4v81.2C0,111.3,8.7,120,19.4,120h81.2c10.7,0,19.4-8.3,19.4-19V19.4
	C120,8.7,111.3,0,100.6,0z M19.4,5h81.2c7.9,0,14.4,6.5,14.4,14.4V36H5V19.4C5,11.5,11.5,5,19.4,5z M18,52v9H5v-9H18z M5,49V39h13
	v10H5z M18,64v9H5v-9H18z M18,76v9H5v-9H18z M18,88v9H5v-9H18z M24,88h91v9H24V88z M24,85v-9h91v9H24z M24,73v-9h91v9H24z M24,61v-9
	h91v9H24z M24,49V39h91v10H24z M5,100.6V100h13v14.9C10.7,114.2,5,108.1,5,100.6z M100.6,115H24v-15h91v1
	C115,108.9,108.5,115,100.6,115z"/>
</svg>
