<?xml version="1.0" encoding="utf-8"?>
<!-- Generator: Adobe Illustrator 18.1.1, SVG Export Plug-In . SVG Version: 6.00 Build 0)  -->
<!DOCTYPE svg PUBLIC "-//W3C//DTD SVG 1.1//EN" "http://www.w3.org/Graphics/SVG/1.1/DTD/svg11.dtd">
<svg version="1.1" id="Layer_1" xmlns="http://www.w3.org/2000/svg" xmlns:xlink="http://www.w3.org/1999/xlink" x="0px" y="0px"
	 viewBox="0 0 120 120" enable-background="new 0 0 120 120" xml:space="preserve">
<path fill="#4374BA" d="M87,0v29H58v29H29v29H0v33h28.6H33h24.6h4.3h24.6h4.3H120V90.9v-4.3V62.1v-4.4V33.2v-4.4V0H87z M29,115H4V91
	h25V115z M87,62v24H62V62H87z M87,33v25H62V33H87z M33,62h25v24H33V62z M58,115H33V91h25V115z M87,115H62V91h25V115z M116,115H91V91
	h25V115z M116,86H91V62h25V86z M116,58H91V33h25V58z M91,29V4h25v25H91z"/>
</svg>
