<?xml version="1.0" encoding="utf-8"?>
<!-- Generator: Adobe Illustrator 18.1.1, SVG Export Plug-In . SVG Version: 6.00 Build 0)  -->
<!DOCTYPE svg PUBLIC "-//W3C//DTD SVG 1.1//EN" "http://www.w3.org/Graphics/SVG/1.1/DTD/svg11.dtd">
<svg version="1.1" id="Layer_1" xmlns="http://www.w3.org/2000/svg" xmlns:xlink="http://www.w3.org/1999/xlink" x="0px" y="0px"
	 viewBox="0 0 120 120" enable-background="new 0 0 120 120" xml:space="preserve">
<g>
	<rect x="0" y="65" fill="#6E7EA3" width="21.9" height="21.8"/>
	<rect x="28" y="7" fill="#38537C" width="37" height="36"/>
	<polygon fill="#6E7EA3" points="59,87 36.1,86.8 36.1,65 59,65 	"/>
	<polygon fill="#38537C" points="49,50 49,46 44,46 44,50 8,50 8,63 13,63 13,55 44,55 44,62 49,62 49,55 80,55 80,63 85,63 85,50 	
		"/>
	<polygon fill="#6E7EA3" points="85.1,65 72,65 72,76.9 	"/>
	<g>
		<g>
			<path fill="#4374BA" d="M59,109c0.1,0.6,0.6,1.1,1,1.5c0.2,0.2,1,0.5,1,0.5l13.7-0.1c0.5,0,1-0.2,1.3-0.5l43.2-42.9
				c0.2-0.2,0.5-0.7,0.5-1.2c0-0.2,0-0.8-0.5-1.2l-13.6-13.6c-0.2-0.2-0.7-0.5-1.2-0.5c-0.2,0-0.8,0-1.2,0.5L60,94.4l0,0.1
				c-0.2,0.3-0.4,0.7-0.4,1.1L59,108 M73.9,107.4l-6.6,0.4c-0.3-2.7-2.2-4.5-4.9-4.7l0.4-6.6L97.5,62l4.6,4.6L69.2,99.2
				c-0.6,0.6-0.6,1.4,0,2c0.2,0.3,0.6,0.4,1,0.4c0.4,0,0.8-0.1,1.1-0.4l32.9-32.7l4.5,4.4L73.9,107.4z M110.6,70.9l-11.1-11l4.8-4.8
				l11.1,11L110.6,70.9z"/>
			<path fill="#4374BA" d="M60,111c-0.6-0.4-0.9-0.9-1-2l0.2-13.4c0-0.5,0.3-1,0.5-1.3l0.1-0.1l43.2-42.9c0.5-0.5,1.2-0.6,1.4-0.6
				c0.6,0,1.2,0.3,1.4,0.6l13.6,13.6c0.4,0.4,0.6,0.9,0.6,1.4c0,0.6-0.3,1.2-0.6,1.4l-43.2,42.9c-0.4,0.4-0.6,0.4-1.2,0.4H60z
				 M104.3,51.3c-0.2,0-0.6,0-1,0.4L60.2,94.7c-0.2,0.3-0.4,0.6-0.4,0.9l0.1,13.4c-0.1,0.4,0,0.9,0.4,1.3c0.1,0.1,0.3,0.3,0.5,0.4
				v-0.1l13.9,0c0.5,0,0.8-0.1,1.1-0.4L119,67.3c0.2-0.2,0.4-0.6,0.4-1c0-0.3-0.1-0.7-0.4-1l-13.6-13.6
				C105.2,51.5,104.8,51.3,104.3,51.3z M67.1,108.1l0-0.3c-0.3-2.5-2.1-4.3-4.6-4.5l-0.3,0l0.4-7l0.1-0.1l34.8-34.7l5.1,5l-0.2,0.2
				L69.5,99.4c-0.5,0.5-0.5,1.1,0,1.6c0.2,0.3,0.5,0.3,0.8,0.3c0.4,0,0.6-0.1,0.8-0.3l33.1-32.9l4.9,4.8l-0.2,0.2L74,107.7
				L67.1,108.1z M62.8,102.8c2.5,0.3,4.4,2.1,4.8,4.7l6.2-0.4l34.4-34.2l-4-4l-32.7,32.5c-0.3,0.3-0.7,0.5-1.3,0.5
				c-0.6,0-1-0.2-1.2-0.5c-0.7-0.7-0.7-1.7,0-2.4l32.6-32.5l-4.2-4.1L63.2,96.6L62.8,102.8z M110.6,71.3L99.1,59.9l5.2-5.2
				l11.5,11.5L110.6,71.3z M99.9,59.9l10.7,10.5l4.3-4.3l-10.7-10.6L99.9,59.9z"/>
		</g>
		<g>
			<path fill="#4374BA" d="M61.3,111.1c-0.1,0-0.1,0-0.2,0v0H61.3z"/>
			<polygon fill="#4374BA" points="61.3,111.4 60.8,111.4 60.8,110.8 61.3,110.8 61.3,111.1 61.5,111.1 61.3,111.1 			"/>
		</g>
	</g>
</g>
</svg>
