<?xml version="1.0" encoding="utf-8"?>
<!-- Generator: Adobe Illustrator 18.1.1, SVG Export Plug-In . SVG Version: 6.00 Build 0)  -->
<!DOCTYPE svg PUBLIC "-//W3C//DTD SVG 1.1//EN" "http://www.w3.org/Graphics/SVG/1.1/DTD/svg11.dtd">
<svg version="1.1" id="Layer_1" xmlns="http://www.w3.org/2000/svg" xmlns:xlink="http://www.w3.org/1999/xlink" x="0px" y="0px"
	 viewBox="0 0 120 120" enable-background="new 0 0 120 120" xml:space="preserve">
<g>
	<path fill="#4374BA" d="M28,110H0l0.2-27H28V110z M7,103h14V90H7V103z"/>
</g>
<g>
	<path fill="#4374BA" d="M74,110H45l0.2-27H74V110z M52,103h15V90H52V103z"/>
</g>
<g>
	<path fill="#4374BA" d="M82.9,55H38V10h45L82.9,55z M45,48h31V17H45V48z"/>
</g>
<g>
	<polygon fill="#4374BA" points="63,64 63,58 56,58 56,64 10,64 10,80 17,80 17,71 56,71 56,79 63,79 63,71 103,71 103,80 110,80 
		110,64 	"/>
</g>
<g>
	<path fill="#4374BA" d="M120,110H92V83h28V110z M99,103h14V90H99V103z"/>
</g>
</svg>
