<?xml version="1.0" encoding="utf-8"?>
<!-- Generator: Adobe Illustrator 18.1.1, SVG Export Plug-In . SVG Version: 6.00 Build 0)  -->
<!DOCTYPE svg PUBLIC "-//W3C//DTD SVG 1.1//EN" "http://www.w3.org/Graphics/SVG/1.1/DTD/svg11.dtd">
<svg version="1.1" id="Layer_1" xmlns="http://www.w3.org/2000/svg" xmlns:xlink="http://www.w3.org/1999/xlink" x="0px" y="0px"
	 viewBox="0 0 120 120" enable-background="new 0 0 120 120" xml:space="preserve">
<path fill="#4374BA" d="M60,0C26.9,0,0,26.9,0,60c0,33.1,26.9,60,60,60c33.1,0,60-26.9,60-60C120,26.9,93.1,0,60,0z M5,60
	c0-6.3,1.1-12.4,3-18H39v35H7.7C6,71.6,5,65.9,5,60z M43.2,80c-0.4,0.5-0.8,1-1.2,1.5l0-1.5H43.2z M68.3,45.9
	c-6.9,8-10.8,13.8-13.5,17.9l-0.5,0.7c-2.3,3.6-4.9,7.5-8.6,12.4H42l0-35h29.9C70.7,43.2,69.5,44.5,68.3,45.9z M39,80v5
	c-6.6,7.2-13.3,8.3-21.5,3.6c-1.2-0.7-4-2.1-6.5-3.9c-0.8-1.5-1.5-3.1-2.1-4.7H39z M104.9,28.4c-2.3-0.3-4.3-0.4-4.7-0.4
	c-0.1,0-0.3,0-0.4,0c-6.2,0-12.6,2.2-18.8,6.4V9.2C90.7,13.2,99,19.9,104.9,28.4z M78,8v28.5c-1,0.8-2,1.6-3,2.5H42l0-30.9
	c5.6-2,11.7-3,18-3C66.3,5,72.4,6.1,78,8z M39,9.2V39H9.2C14.8,25.5,25.5,14.8,39,9.2z"/>
</svg>
