<?xml version="1.0" encoding="utf-8"?>
<!-- Generator: Adobe Illustrator 18.1.1, SVG Export Plug-In . SVG Version: 6.00 Build 0)  -->
<!DOCTYPE svg PUBLIC "-//W3C//DTD SVG 1.1//EN" "http://www.w3.org/Graphics/SVG/1.1/DTD/svg11.dtd">
<svg version="1.1" id="Layer_1" xmlns="http://www.w3.org/2000/svg" xmlns:xlink="http://www.w3.org/1999/xlink" x="0px" y="0px"
	 viewBox="0 0 120 120" enable-background="new 0 0 120 120" xml:space="preserve">
<line fill="#FFFFFF" x1="40.4" y1="4" x2="40.4" y2="116"/>
<polygon fill="#666666" points="42,116 39,116 39,4 42,4 "/>
<line fill="#FFFFFF" x1="77.2" y1="4" x2="77.2" y2="116.8"/>
<rect x="78" y="5" fill="#666666" width="3" height="111"/>
<line fill="#FFFFFF" x1="3.5" y1="77.5" x2="116.7" y2="77.5"/>
<polygon fill="#666666" points="115,80 5,80 4,77 116,77 "/>
<line fill="#FFFFFF" x1="3.5" y1="41.1" x2="115.9" y2="41.1"/>
<polygon fill="#666666" points="116,42 4,42 5,39 115,39 "/>
<path opacity="0.8" fill="#226EB6" d="M110.8,32.5c-2.7-0.5-6.2-0.8-8.1-0.9l-1,0.1c-9.3,0.4-19.5,5.9-29.5,17.1
	c-6.8,7.7-10.9,13.3-14,17.9l-0.5,0.8c-3.3,5.1-7.6,11.3-15.6,20.4C31.8,99.5,21.5,98,12,92.2c10.3,15.7,28,26.1,48.1,26.1
	c31.8,0,57.7-26,57.7-58.1C117.8,50.2,115.3,40.7,110.8,32.5z"/>
<path fill="#231F20" d="M26.8,98.7c-4.1,0-7.6-1.3-12.1-3.8C13,93.9,6.3,80.5,7.7,82c3.1,3.2,8.1,5.6,9.8,6.6
	c8.6,4.8,15.5,3.5,22.3-4.5c7.3-8.5,11.2-14.3,14.5-19.5l0.5-0.7c2.7-4.2,6.7-9.9,13.5-17.9c10.1-11.8,21-18,31.6-18
	c0.1,0,0.3,0,0.4,0c0.5,0,4.2,0.2,7.3,0.8c2,1.9,3.9,5.8,4.7,8.7c-2.4-0.9-2.4-0.9-4.3-1.3c-2.7-0.5-8-1-8.1-1c-0.1,0-0.2,0-0.3,0
	c-8.1,0-17.2,5.3-25.9,15.4c-6.6,7.7-10.4,13.2-12.9,17.1l-0.5,0.7C56.9,74,52.9,80,45.2,88.9C39.6,95.4,33.4,98.7,26.8,98.7z"/>
<path fill="#666666" d="M60,0C26.9,0,0,26.9,0,60c0,33.1,26.9,60,60,60c33.1,0,60-26.9,60-60C120,26.9,93.1,0,60,0z M115,60
	c0,30.3-24.7,55-55,55C29.7,115,5,90.3,5,60C5,29.7,29.7,5,60,5C90.3,5,115,29.7,115,60z"/>
</svg>
