<?xml version="1.0" encoding="utf-8"?>
<!-- Generator: Adobe Illustrator 18.1.1, SVG Export Plug-In . SVG Version: 6.00 Build 0)  -->
<!DOCTYPE svg PUBLIC "-//W3C//DTD SVG 1.1//EN" "http://www.w3.org/Graphics/SVG/1.1/DTD/svg11.dtd">
<svg version="1.1" id="Layer_1" xmlns="http://www.w3.org/2000/svg" xmlns:xlink="http://www.w3.org/1999/xlink" x="0px" y="0px"
	 viewBox="0 0 120 120" enable-background="new 0 0 120 120" xml:space="preserve">
<rect x="39" y="2" fill="#666666" width="3" height="116"/>
<rect x="79" y="2" fill="#666666" width="3" height="116"/>
<rect x="2" y="79" fill="#666666" width="116" height="3"/>
<polygon fill="#666666" points="118,42 2,42 1,39 118,39 "/>
<path opacity="0.8" fill="#226EB6" d="M107.1,43.1c0,0,5-1.2,9.9,2.1l0.2,72.3L2.8,117.3l0.1-30.2c12.4,12.4,29.4,29.6,46.1,10.4
	c7.6-8.8,11.6-14.9,14.8-19.8l0.5-0.7c2.9-4.5,6.8-9.9,13.2-17.4c9.9-11.4,19.9-16.7,29.1-16.6L107.1,43.1z"/>
<path fill="#231F20" d="M32.4,109.3c-11.3,0-21.1-10.2-29.2-18.5v-7.6c0,0,20.9,19.9,29.6,19.6c4.1-0.1,8-2.4,11.8-7
	c6.8-8.1,10.4-13.6,13.6-18.5l0.4-0.7c2.5-4,6.3-9.4,12.6-17c13-15.5,36.8-20.7,45.4-20.1V46c-18.9,2.6-32.3,8.2-40.4,17.8
	c-6.1,7.3-9.7,12.5-12.1,16.2l-0.4,0.7c-3.2,5.2-7,10.9-14.1,19.3c-5,5.9-10.6,9-16.6,9.3C32.8,109.3,32.6,109.3,32.4,109.3z"/>
<path fill="#666666" d="M120,120H0V0h120V120z M4,116h112V4H4V116z"/>
</svg>
