<?xml version="1.0" encoding="utf-8"?>
<!-- Generator: Adobe Illustrator 18.1.1, SVG Export Plug-In . SVG Version: 6.00 Build 0)  -->
<!DOCTYPE svg PUBLIC "-//W3C//DTD SVG 1.1//EN" "http://www.w3.org/Graphics/SVG/1.1/DTD/svg11.dtd">
<svg version="1.1" id="Layer_1" xmlns="http://www.w3.org/2000/svg" xmlns:xlink="http://www.w3.org/1999/xlink" x="0px" y="0px"
	 viewBox="0 0 120 120" enable-background="new 0 0 120 120" xml:space="preserve">
<path fill="#4374BA" d="M0,0v120h120V0H0z M79,42v10.4c-2.8,2.1-5.4,4.5-7.7,7.2c-6.4,7.6-10.1,13-12.6,17l-0.4,0.7
	c-0.3,0.6-0.7,1.1-1.1,1.7H42V42H79z M42,39V4h37v35H42z M44.7,95.8c-0.9,1-1.8,1.9-2.7,2.8V82h13.2C52.6,85.8,49.4,90.2,44.7,95.8z
	 M82,50.3V42h18.3C94.4,43.7,87.9,46.4,82,50.3z M39,79H4V42h35V79z M39,82v18.9c-2,1.2-4.1,1.9-6.2,1.9c-7.7,0.3-25-15.3-28.8-18.9
	V82H39z M116,39H82V4h34V39z M39,4v35H4V4H39z"/>
</svg>
