<?xml version="1.0" encoding="utf-8"?>
<!-- Generator: Adobe Illustrator 18.1.1, SVG Export Plug-In . SVG Version: 6.00 Build 0)  -->
<!DOCTYPE svg PUBLIC "-//W3C//DTD SVG 1.1//EN" "http://www.w3.org/Graphics/SVG/1.1/DTD/svg11.dtd">
<svg version="1.1" id="Layer_1" xmlns="http://www.w3.org/2000/svg" xmlns:xlink="http://www.w3.org/1999/xlink" x="0px" y="0px"
	 viewBox="0 0 120 120" enable-background="new 0 0 120 120" xml:space="preserve">
<g>
	<path fill="#676868" d="M82.3,105c0,2.2-0.7,4-2,5.5c-1.3,1.4-3.1,2.2-5.3,2.2c-2,0-3.8-0.8-5.5-2.3L45.2,86.1L-0.1,120l33.9-45.3
		L9.6,50.4c-2.3-2.3-2.8-5-1.6-8.1c1.3-3.2,3.6-4.7,6.9-4.7c15.2,0,28.1-2.7,38.8-8.1C62.4,25.2,69.6,17,75.4,4.9
		c0.9-2.3,2.6-3.8,5.2-4.6c2.6-0.8,5-0.1,7.2,1.9l29.9,30.1c2,2.2,2.7,4.6,2,7.2c-0.7,2.6-2.2,4.3-4.5,5.2
		c-12.3,6-20.6,13.3-24.9,21.7C85,76.9,82.3,89.8,82.3,105z"/>
</g>
</svg>
