<?xml version="1.0" encoding="utf-8"?>
<!-- Generator: Adobe Illustrator 18.1.1, SVG Export Plug-In . SVG Version: 6.00 Build 0)  -->
<!DOCTYPE svg PUBLIC "-//W3C//DTD SVG 1.1//EN" "http://www.w3.org/Graphics/SVG/1.1/DTD/svg11.dtd">
<svg version="1.1" id="Layer_1" xmlns="http://www.w3.org/2000/svg" xmlns:xlink="http://www.w3.org/1999/xlink" x="0px" y="0px"
	 viewBox="0 0 120 120" enable-background="new 0 0 120 120" xml:space="preserve">
<g>
	<path fill="#676868" d="M115.9,32.5c2.7,2.7,4.1,6,4.1,9.9c0,3.9-1.4,7.2-4.1,10c-1.4,1.4-3.1,2.5-4.9,3.2
		c-9.6,4.6-16.1,10.3-19.5,16.9c-4.6,9.3-6.9,20.4-6.9,33.3c0,4.1-1.3,7.4-3.9,10c-2.6,2.6-6,3.9-10,3.9c-4.3,0-7.7-1.4-10.2-4.1
		L37.8,92.9L0,119.9l27-37.8L4.1,59.3c-1.8-1.7-3-3.9-3.7-6.6S0,47.1,0.9,44c2.5-5.9,6.9-8.8,13-8.8c13.2,0,24.3-2.3,33.3-6.8
		l1.5-0.8c6.2-3.4,11.6-9.8,16-19.1c0.7-1.8,1.7-3.3,2.8-4.6c2.7-2.7,6-4,10-3.9c4,0.1,7.3,1.5,9.9,4.2L115.9,32.5z M78.8,66.4
		c4.9-9.8,13.7-17.7,26.5-23.7L77.6,14.1c-6.2,13.2-14.2,22.2-23.8,27.1L52,42c-10.8,5.1-23.5,7.6-38.1,7.6l56.3,56.3
		c0-15.2,2.8-28.4,8.5-39.7V66.4z"/>
</g>
</svg>
