<?xml version="1.0" encoding="utf-8"?>
<!-- Generator: Adobe Illustrator 18.1.1, SVG Export Plug-In . SVG Version: 6.00 Build 0)  -->
<!DOCTYPE svg PUBLIC "-//W3C//DTD SVG 1.1//EN" "http://www.w3.org/Graphics/SVG/1.1/DTD/svg11.dtd">
<svg version="1.1" id="Layer_1" xmlns="http://www.w3.org/2000/svg" xmlns:xlink="http://www.w3.org/1999/xlink" x="0px" y="0px"
	 viewBox="0 0 120 120" enable-background="new 0 0 120 120" xml:space="preserve">
<g>
	<path fill="#676868" d="M0,68.1V51.9c0-1.8,0.6-3.4,1.9-4.8c1.3-1.4,2.9-2,4.8-1.9h38.4V6.8C45.1,5,45.7,3.4,47,2
		c1.3-1.4,2.9-2,4.8-2h16.3c1.8,0,3.4,0.7,4.8,2c1.4,1.4,2,3,1.9,4.8v38.4h38.4c1.8,0,3.4,0.6,4.8,1.9c1.4,1.3,2.1,2.9,2.1,4.8v16.2
		c0,1.8-0.7,3.4-2.1,4.8c-1.4,1.4-3,2-4.8,1.9H74.8v38.5c0,1.8-0.6,3.4-1.9,4.8c-1.3,1.4-2.9,2-4.8,1.9H51.8c-1.8,0-3.4-0.6-4.8-1.9
		c-1.4-1.3-2-2.9-1.9-4.8V74.8H6.7c-1.8,0-3.4-0.6-4.8-1.9C0.6,71.6-0.1,70,0,68.1z"/>
</g>
</svg>
