<?xml version="1.0" encoding="utf-8"?>
<!-- Generator: Adobe Illustrator 18.1.1, SVG Export Plug-In . SVG Version: 6.00 Build 0)  -->
<!DOCTYPE svg PUBLIC "-//W3C//DTD SVG 1.1//EN" "http://www.w3.org/Graphics/SVG/1.1/DTD/svg11.dtd">
<svg version="1.1" id="Layer_1" xmlns="http://www.w3.org/2000/svg" xmlns:xlink="http://www.w3.org/1999/xlink" x="0px" y="0px"
	 viewBox="0 0 532 120" enable-background="new 0 0 532 120" xml:space="preserve">
<g>
	<g>
		<path d="M333.1,69.7c-4.8,7.9-13.4,13.2-23.3,13.2c-13.4,0-24.5-9.7-26.8-22.5h53.6c0,0,0,0,0,0h9.4c0.2-1.6,0.3-3.2,0.3-4.8
			c0-20.2-16.4-36.5-36.5-36.5c-20.2,0-36.5,16.4-36.5,36.5c0,20.2,16.4,36.5,36.5,36.5c15.2,0,28.2-9.3,33.7-22.5H333.1z
			 M309.8,28.4c13.5,0,24.7,9.8,26.9,22.7h-53.7C285.1,38.2,296.3,28.4,309.8,28.4z"/>
		<path d="M427.6,55.5c-0.1-20.1-16.4-36.4-36.5-36.4c-20.2,0-36.5,16.4-36.5,36.5c0,20.2,16.4,36.5,36.5,36.5
			c10.8,0,20.6-4.7,27.2-12.2v39.7h9.3L427.6,55.5L427.6,55.5z M391,82.8c-15,0-27.2-12.2-27.2-27.2c0-15,12.2-27.2,27.2-27.2
			c15,0,27.2,12.2,27.2,27.2C418.3,70.6,406.1,82.8,391,82.8z"/>
		<path d="M532,55.4c-0.1-20.1-16.4-36.4-36.5-36.4c-20.2,0-36.5,16.4-36.5,36.5c0,0.1,0,0.2,0,0.2v36.4h9.3V55.6
			c0-15,12.2-27.2,27.2-27.2c15,0,27.2,12.2,27.2,27.2c0,0,0,0,0,0.1V80c0,0,0,0,0,0v12.2h9.3L532,55.4L532,55.4z"/>
		<path d="M191,19.1c-20.2,0-36.5,16.4-36.5,36.5c0,0.5,0,1,0,1.6v62.5h9.3V80c6.7,7.5,16.4,12.1,27.2,12.1
			c20.2,0,36.5-16.4,36.5-36.5C227.6,35.4,211.2,19.1,191,19.1z M191,82.8c-15,0-27.2-12.2-27.2-27.2c0-15,12.2-27.2,27.2-27.2
			c15,0,27.2,12.2,27.2,27.2C218.3,70.6,206.1,82.8,191,82.8z"/>
		<path d="M273.2,19.1c-20.2,0-36.5,16.4-36.5,36.5c0,0,0,0,0,0h0v36.6h9.3V55.6h0c0-15,12.2-27.2,27.2-27.2c0,0,0.1,0,0.1,0v-9.3
			C273.3,19.1,273.2,19.1,273.2,19.1z"/>
		<g>
			<rect x="438.7" y="19.2" width="9.3" height="73"/>
			<path d="M448.7,5.5c0,3-2.5,5.5-5.5,5.5c-3,0-5.5-2.5-5.5-5.5c0-3,2.5-5.5,5.5-5.5C446.2,0,448.7,2.5,448.7,5.5z"/>
		</g>
	</g>
	<g>
		<g>
			<rect x="58.9" y="61.6" fill="#04A0C5" width="58.5" height="58.3"/>
			<path fill="#04A0C5" d="M117.4,61.7c0,32.1-26.2,58.1-58.5,58.1S0.4,93.8,0.4,61.7c0-32.1,26.2-58.1,58.5-58.1
				S117.4,29.6,117.4,61.7z"/>
		</g>
		<path fill="#027391" d="M88,61.9c0,0,0-0.1,0-0.2c0-16-13.1-28.9-29.1-28.9c-16.1,0-29.1,13-29.1,28.9c0,14.9,11.4,27.2,26,28.8
			v1.9h32.4L88,61.9L88,61.9z"/>
		<rect x="90.5" y="93.4" fill="#027391" width="26.9" height="26.5"/>
		<path fill="#FFFFFF" d="M118,86.5H92.4V61.7h0c-0.1-18.3-15-33.1-33.4-33.1c-18.4,0-33.4,14.9-33.4,33.2c0,18.2,14.8,33,33.1,33.2
			v0h25.2v25l8.8,0.1l-0.3-25H118V86.5z M58.8,86.5L58.8,86.5c-13.6-0.1-24.6-11.2-24.6-24.7c0-13.7,11.1-24.7,24.9-24.7
			c13.7,0,24.8,11,24.9,24.6h0v24.8H58.8z"/>
	</g>
</g>
</svg>
