<?xml version="1.0" encoding="utf-8"?>
<!-- Generator: Adobe Illustrator 18.1.1, SVG Export Plug-In . SVG Version: 6.00 Build 0)  -->
<!DOCTYPE svg PUBLIC "-//W3C//DTD SVG 1.1//EN" "http://www.w3.org/Graphics/SVG/1.1/DTD/svg11.dtd">
<svg version="1.1" id="Layer_1" xmlns="http://www.w3.org/2000/svg" xmlns:xlink="http://www.w3.org/1999/xlink" x="0px" y="0px"
	 viewBox="0 0 120 120" enable-background="new 0 0 120 120" xml:space="preserve">
<g>
	<g>
		<rect x="59.7" y="59.8" fill="#04A0C5" width="59.7" height="60.1"/>
		<path fill="#04A0C5" d="M119.4,59.9c0,33.1-26.7,59.9-59.7,59.9S0,93,0,59.9C0,26.8,26.7,0,59.7,0S119.4,26.8,119.4,59.9z"/>
	</g>
	<path fill="#027391" d="M89.4,60.1c0-0.1,0-0.1,0-0.2c0-16.5-13.3-29.8-29.7-29.8C43.3,30.1,30,43.4,30,59.9
		C30,75.3,41.6,88,56.5,89.6v1.9h33L89.4,60.1L89.4,60.1z"/>
	<rect x="91.9" y="92.6" fill="#027391" width="27.4" height="27.3"/>
	<path fill="#FFFFFF" d="M120,85.5H93.9V59.9h0C93.9,41,78.6,25.8,59.9,25.8C41,25.8,25.8,41.1,25.8,60c0,18.8,15.1,34,33.8,34.2v0
		h25.7v25.8l9,0.1l-0.3-25.8H120V85.5z M59.6,85.5L59.6,85.5C45.7,85.3,34.5,74,34.5,60c0-14.1,11.4-25.5,25.4-25.5
		c14,0,25.3,11.4,25.4,25.4h0v25.6H59.6z"/>
</g>
</svg>
