<?xml version="1.0" encoding="utf-8"?>
<!-- Generator: Adobe Illustrator 18.1.1, SVG Export Plug-In . SVG Version: 6.00 Build 0)  -->
<!DOCTYPE svg PUBLIC "-//W3C//DTD SVG 1.1//EN" "http://www.w3.org/Graphics/SVG/1.1/DTD/svg11.dtd">
<svg version="1.1" id="Layer_1" xmlns="http://www.w3.org/2000/svg" xmlns:xlink="http://www.w3.org/1999/xlink" x="0px" y="0px"
	 viewBox="0 0 120 120" enable-background="new 0 0 120 120" xml:space="preserve">
<g>
	<path fill="#676868" d="M118,73c-6.6,27.7-29.5,47-58.3,47c-15.2,0-30-6-41.1-16.6L8.5,113.5C7.6,114.5,6.3,115,5,115
		c-2.7,0-5-2.3-5-5V75c0-2.7,2.3-5,5-5h35c2.7,0,5,2.3,5,5c0,1.3-0.5,2.6-1.5,3.5L32.8,89.2C40.2,96.1,49.9,100,60,100
		c13.9,0,26.8-7.2,34.1-19.1c1.9-3,2.8-6,4.1-9.1c0.4-1.1,1.2-1.8,2.3-1.8h15c1.4,0,2.5,1.2,2.5,2.5C118,72.7,118,72.9,118,73z
		 M120,45c0,2.7-2.3,5-5,5H80c-2.7,0-5-2.3-5-5c0-1.3,0.5-2.6,1.5-3.5l10.8-10.8C79.8,23.8,70.1,20,60,20
		c-13.9,0-26.8,7.2-34.1,19.1c-1.9,3-2.8,6-4.1,9.1c-0.4,1.1-1.2,1.8-2.3,1.8H3.9c-1.4,0-2.5-1.2-2.5-2.5c0-0.2,0-0.4,0-0.5
		C8.1,19.2,31.2,0,60,0c15.3,0,30.2,6.1,41.3,16.6l10.2-10.1c0.9-0.9,2.2-1.5,3.5-1.5c2.7,0,5,2.3,5,5V45z"/>
</g>
</svg>
