<?xml version="1.0" encoding="utf-8"?>
<!-- Generator: Adobe Illustrator 18.1.1, SVG Export Plug-In . SVG Version: 6.00 Build 0)  -->
<!DOCTYPE svg PUBLIC "-//W3C//DTD SVG 1.1//EN" "http://www.w3.org/Graphics/SVG/1.1/DTD/svg11.dtd">
<svg version="1.1" id="Layer_1" xmlns="http://www.w3.org/2000/svg" xmlns:xlink="http://www.w3.org/1999/xlink" x="0px" y="0px"
	 viewBox="0 0 120 120" enable-background="new 0 0 120 120" xml:space="preserve">
<path fill="#4374BA" d="M100.9,64.9c-3.2-2.8-8-5.9-14.6-8C96.6,50.3,102,37.8,100,25.7c-1.8-10.8-9.6-20-19.8-23.8
	c-6.7-2.5-14.2-2.5-21-0.1C47.5-2.5,34,1.4,26.4,11.2c-7.3,9.4-8,22.8-1.8,32.9c3.5,5.6,8.8,9.9,15.1,12.1
	C28.5,58.6,17.6,64.8,11.8,75C9.1,79.6,8,84.5,8,89.8c0,6.8,0,13.6,0,20.5c0,3.2,0,6.8,0,9.8h19.1h64H112V87.6
	C112,79.3,107.9,71,100.9,64.9C97.7,62.1,107.9,71,100.9,64.9z M69.4,7.2c9.5,0,18.3,5.9,21.9,14.7c4,9.6,1,21-7,27.5
	c-8.2,6.6-20.1,7-28.7,0.9c-7.8-5.6-11.6-15.6-9.3-24.9C48.6,16.1,56.5,9,65.8,7.5C67,7.3,68.2,7.2,69.4,7.2z M105,113H91.1H34V88.4
	C34,77,44,68.8,53.8,65.1c12.8-4.9,28.9-4.5,40.4,3.7c6.1,4.3,10.8,11.2,10.8,18.9V113z"/>
</svg>
