<?xml version="1.0" encoding="utf-8"?>
<!-- Generator: Adobe Illustrator 18.1.1, SVG Export Plug-In . SVG Version: 6.00 Build 0)  -->
<!DOCTYPE svg PUBLIC "-//W3C//DTD SVG 1.1//EN" "http://www.w3.org/Graphics/SVG/1.1/DTD/svg11.dtd">
<svg version="1.1" id="Layer_1" xmlns="http://www.w3.org/2000/svg" xmlns:xlink="http://www.w3.org/1999/xlink" x="0px" y="0px"
	 viewBox="0 0 120 120" enable-background="new 0 0 120 120" xml:space="preserve">
<g>
	<path fill="#DEDEDD" d="M69,61.6V54h-4.2c8.3-5,13.8-14.3,13.8-24.8C78.6,13.1,65.6,0,49.5,0c-16.1,0-29.4,13-29.4,29.1
		C20.1,43.5,31,55.5,44,57.8v0.8C23,61.1,8,75,8,90.2C8,107,8,120,8,120h82c0,0,0-15.4,0-30.6C90,78.5,83,67.1,69,61.6z"/>
	<path fill="#12508A" d="M28.2,119.9h82.5c0,0,0-15.2,0-30.4c0-15.2-14.5-31.2-39.6-31.2c-25.1,0-43,15.2-43,31.9
		C28.2,107,28.2,119.9,28.2,119.9z"/>
	<path fill="#C3996B" d="M40.4,29.1C40.4,13.1,53.4,0,69.5,0c16.1,0,29.1,13,29.1,29.1c0,16.1-13,29.1-29.1,29.1
		C53.4,58.3,40.4,45.2,40.4,29.1z"/>
</g>
</svg>
