<?xml version="1.0" encoding="utf-8"?>
<!-- Generator: Adobe Illustrator 18.1.1, SVG Export Plug-In . SVG Version: 6.00 Build 0)  -->
<!DOCTYPE svg PUBLIC "-//W3C//DTD SVG 1.1//EN" "http://www.w3.org/Graphics/SVG/1.1/DTD/svg11.dtd">
<svg version="1.1" id="Layer_1" xmlns="http://www.w3.org/2000/svg" xmlns:xlink="http://www.w3.org/1999/xlink" x="0px" y="0px"
	 viewBox="0 0 120 120" enable-background="new 0 0 120 120" xml:space="preserve">
<path opacity="0.8" fill="#231F20" d="M120,55.1c0-18.4,0-36.7,0-55.2c-7.2,5.2-13.5,10.4-20.1,15.5c-1.2-0.9-2.4-1.7-3.5-2.6
	C84.1,4.3,70.5,0.5,55.5,1.8C30,4.1,8.8,21.8,2.4,46.1c-0.9,3.4-1.4,7-2,10.5c-0.1,0.3-0.4,0.7-0.4,1c0,2.2,0,4.4,0,6.6
	c1,1.5,0.5,3,0.7,4.6c1.5,11.1,6.1,21,13.4,29.6c8.5,9.9,19.3,16.5,32.2,19.6c3.3,0.8,6.8,1.2,10.2,1.7c0.3,0,0.5,0.3,0.8,0.3
	c2.1,0,4.1,0,6.2,0c1.8-1,3.7-0.5,5.5-0.7c5.4-0.6,10.6-2.1,15.6-4.2c8.2-3.4,15.3-8.3,21.2-14.8c5.2-5.6,9.1-11.9,11.8-18.9
	c0-0.1,0-0.2,0-0.4c-2.2-0.5-4.3-1-6.5-1.6c-4.7-1.1-9.5-2.2-14.2-3.4c-0.7-0.2-1,0-1.2,0.6c-4.2,9-10.9,15.4-20.2,19.1
	c-6.8,2.8-14,3.5-21.2,2.2c-13.5-2.5-23.4-9.9-28.6-22.3c-5.5-13.1-3.9-25.7,4.4-37.3c5.5-7.8,13.2-12.7,22.6-14.7
	c10.4-2.2,20.1-0.4,29.1,5.3c0.1,0.1,0.1,0.1,0.3,0.3c-6.5,5.1-12.9,10.2-19.5,15.4C81.7,48.2,100.3,51.7,120,55.1z"/>
</svg>
