<?xml version="1.0" encoding="utf-8"?>
<!-- Generator: Adobe Illustrator 18.1.1, SVG Export Plug-In . SVG Version: 6.00 Build 0)  -->
<!DOCTYPE svg PUBLIC "-//W3C//DTD SVG 1.1//EN" "http://www.w3.org/Graphics/SVG/1.1/DTD/svg11.dtd">
<svg version="1.1" id="Layer_1" xmlns="http://www.w3.org/2000/svg" xmlns:xlink="http://www.w3.org/1999/xlink" x="0px" y="0px"
	 viewBox="0 0 120 120" enable-background="new 0 0 120 120" xml:space="preserve">
<g>
	<path fill="#676868" d="M100.8,49.1H24.5c-3,0-5.5-2.5-5.5-5.5c0-1.4,0.6-2.8,1.6-3.8L58.8,1.6c1-1,2.4-1.6,3.8-1.6
		c1.4,0,2.8,0.6,3.8,1.6l38.2,38.2c1,1,1.6,2.4,1.6,3.8C106.3,46.6,103.8,49.1,100.8,49.1z M104.7,80.2l-38.2,38.2
		c-1,1-2.4,1.6-3.8,1.6c-1.4,0-2.8-0.6-3.8-1.6L20.6,80.2c-1-1-1.6-2.4-1.6-3.8c0-3,2.5-5.5,5.5-5.5h76.4c3,0,5.5,2.5,5.5,5.5
		C106.3,77.8,105.7,79.2,104.7,80.2z"/>
</g>
</svg>
