<?xml version="1.0" encoding="utf-8"?>
<!-- Generator: Adobe Illustrator 18.1.1, SVG Export Plug-In . SVG Version: 6.00 Build 0)  -->
<!DOCTYPE svg PUBLIC "-//W3C//DTD SVG 1.1//EN" "http://www.w3.org/Graphics/SVG/1.1/DTD/svg11.dtd">
<svg version="1.1" id="Layer_1" xmlns="http://www.w3.org/2000/svg" xmlns:xlink="http://www.w3.org/1999/xlink" x="0px" y="0px"
	 viewBox="0 0 120 120" enable-background="new 0 0 120 120" xml:space="preserve">
<g>
	<path fill="#676868" d="M9.2,71.1c-5.1,0-9.2-4-9.2-8.9s4.1-8.9,9.2-8.9s9.2,4,9.2,8.9S14.4,71.1,9.2,71.1z M24.1,38.7
		c-6.3,0-11.5-5-11.5-11.1s5.2-11.1,11.5-11.1s11.5,5,11.5,11.1S30.4,38.7,24.1,38.7z M24.1,105.7c-5,0-9.2-4-9.2-8.9
		c0-4.9,4.2-8.9,9.2-8.9c5.1,0,9.2,4,9.2,8.9C33.3,101.7,29.2,105.7,24.1,105.7z M60,26.7c-7.6,0-13.8-6-13.8-13.3S52.4,0,60,0
		s13.8,6,13.8,13.3S67.6,26.7,60,26.7z M60,120c-5.1,0-9.2-4-9.2-8.9c0-4.9,4.1-8.9,9.2-8.9s9.2,4,9.2,8.9C69.2,116,65.1,120,60,120
		z M95.9,43.2c-8.9,0-16.2-6.9-16.2-15.6c0-8.5,7.2-15.6,16.2-15.6c8.9,0,16.2,7,16.2,15.6C112.1,36.2,104.8,43.2,95.9,43.2z
		 M95.9,105.7c-5.1,0-9.2-4-9.2-8.9c0-4.9,4.1-8.9,9.2-8.9c5,0,9.2,4,9.2,8.9C105.1,101.7,101,105.7,95.9,105.7z M110.8,71.1
		c-5.1,0-9.2-4-9.2-8.9s4.1-8.9,9.2-8.9c5.1,0,9.2,4,9.2,8.9S115.9,71.1,110.8,71.1z"/>
</g>
</svg>
