<?xml version="1.0" encoding="utf-8"?>
<!-- Generator: Adobe Illustrator 18.1.1, SVG Export Plug-In . SVG Version: 6.00 Build 0)  -->
<!DOCTYPE svg PUBLIC "-//W3C//DTD SVG 1.1//EN" "http://www.w3.org/Graphics/SVG/1.1/DTD/svg11.dtd">
<svg version="1.1" id="Layer_1" xmlns="http://www.w3.org/2000/svg" xmlns:xlink="http://www.w3.org/1999/xlink" x="0px" y="0px"
	 viewBox="0 0 120 100" enable-background="new 0 0 120 100" xml:space="preserve">
<g>
	<path fill="#676868" d="M120,88.6c0,6.2-5.2,11.4-11.5,11.4H11.5C5.2,100,0,94.9,0,88.6V11.4C0,5.1,5.2,0,11.5,0h96.9
		c6.3,0,11.5,5.1,11.5,11.4V88.6z M36.9,20.5c0-1.3-1-2.3-2.3-2.3H11.5c-1.3,0-2.3,1-2.3,2.3v13.6c0,1.3,1,2.3,2.3,2.3h23.1
		c1.3,0,2.3-1,2.3-2.3V20.5z M36.9,47.7c0-1.3-1-2.3-2.3-2.3H11.5c-1.3,0-2.3,1-2.3,2.3v13.6c0,1.3,1,2.3,2.3,2.3h23.1
		c1.3,0,2.3-1,2.3-2.3V47.7z M36.9,75c0-1.3-1-2.3-2.3-2.3H11.5c-1.3,0-2.3,1-2.3,2.3v13.6c0,1.3,1,2.3,2.3,2.3h23.1
		c1.3,0,2.3-1,2.3-2.3V75z M73.8,20.5c0-1.3-1-2.3-2.3-2.3H48.5c-1.3,0-2.3,1-2.3,2.3v13.6c0,1.3,1,2.3,2.3,2.3h23.1
		c1.3,0,2.3-1,2.3-2.3V20.5z M73.8,47.7c0-1.3-1-2.3-2.3-2.3H48.5c-1.3,0-2.3,1-2.3,2.3v13.6c0,1.3,1,2.3,2.3,2.3h23.1
		c1.3,0,2.3-1,2.3-2.3V47.7z M73.8,75c0-1.3-1-2.3-2.3-2.3H48.5c-1.3,0-2.3,1-2.3,2.3v13.6c0,1.3,1,2.3,2.3,2.3h23.1
		c1.3,0,2.3-1,2.3-2.3V75z M110.8,20.5c0-1.3-1-2.3-2.3-2.3H85.4c-1.3,0-2.3,1-2.3,2.3v13.6c0,1.3,1,2.3,2.3,2.3h23.1
		c1.3,0,2.3-1,2.3-2.3V20.5z M110.8,47.7c0-1.3-1-2.3-2.3-2.3H85.4c-1.3,0-2.3,1-2.3,2.3v13.6c0,1.3,1,2.3,2.3,2.3h23.1
		c1.3,0,2.3-1,2.3-2.3V47.7z M110.8,75c0-1.3-1-2.3-2.3-2.3H85.4c-1.3,0-2.3,1-2.3,2.3v13.6c0,1.3,1,2.3,2.3,2.3h23.1
		c1.3,0,2.3-1,2.3-2.3V75z"/>
</g>
</svg>
