<?xml version="1.0" encoding="utf-8"?>
<!-- Generator: Adobe Illustrator 18.1.1, SVG Export Plug-In . SVG Version: 6.00 Build 0)  -->
<!DOCTYPE svg PUBLIC "-//W3C//DTD SVG 1.1//EN" "http://www.w3.org/Graphics/SVG/1.1/DTD/svg11.dtd">
<svg version="1.1" id="Layer_1" xmlns="http://www.w3.org/2000/svg" xmlns:xlink="http://www.w3.org/1999/xlink" x="0px" y="0px"
	 viewBox="0 0 120 120" enable-background="new 0 0 120 120" xml:space="preserve">
<g>
	<polygon fill="#FFFFFF" points="71,21 71,7 49,7 49,21 13,21 13,114 106,114 106,21 	"/>
	<path fill="#256FB6" d="M83.2,49.7L49.6,82.8L36.8,69.7l-7.6,7.6L50,98l40.8-40.7L83.2,49.7z"/>
	<path fill="#676868" d="M109.2,15h-31C76.9,7,70.3,0.8,62,0.1C61.5,0,61,0,60.5,0s-1,0-1.5,0.1C50.7,0.8,44.1,7,42.8,15h-31
		C9.7,15,8,16.7,8,18.8v97.5c0,2.1,1.7,3.8,3.8,3.8h97.5c2.1,0,3.8-1.7,3.8-3.8V18.8C113,16.7,111.3,15,109.2,15z M60.5,10
		c4.4,0,8,3.6,8,8s-3.6,8-8,8s-8-3.6-8-8S56.1,10,60.5,10z M102,109H19V26h12v7.8c0,2.1,1.2,4.2,3.2,4.2h52.5c2.1,0,3.2-2.2,3.2-4.2
		V26h12V109z"/>
</g>
</svg>
