<?xml version="1.0" encoding="utf-8"?>
<!-- Generator: Adobe Illustrator 18.1.1, SVG Export Plug-In . SVG Version: 6.00 Build 0)  -->
<!DOCTYPE svg PUBLIC "-//W3C//DTD SVG 1.1//EN" "http://www.w3.org/Graphics/SVG/1.1/DTD/svg11.dtd">
<svg version="1.1" id="Layer_1" xmlns="http://www.w3.org/2000/svg" xmlns:xlink="http://www.w3.org/1999/xlink" x="0px" y="0px"
	 viewBox="0 0 120 120" enable-background="new 0 0 120 120" xml:space="preserve">
<path opacity="0.8" fill="#231F20" d="M93.2,41.9c-2.9,0-5.4,1.5-6.8,3.9c-0.2,0-0.3-0.1-0.5-0.1v-0.8c0-4.4-3.5-8-7.9-8
	c-3.3,0-6,2-7.3,4.8V41c0-4.4-3.5-8-7.9-8c-3.3,0-6,2-7.3,4.8V8c0-4.4-3.5-8-7.9-8s-7.9,3.6-7.9,8v38.7c0,0.3,0,0.5,0,0.8V57l-5.3-9
	c-3.1-5.4-8.7-8.1-12.5-5.9c-3.8,2.2-4.3,8.4-1.2,13.9l19.1,33c1.6,2.3,3.6,4.1,5.8,5.5V120h45.7V96c5.7-3.2,9.6-9.7,9.6-17.1v-6.2
	c0.1-0.5,0.2-1.1,0.2-1.6V49.9C101.2,45.5,97.6,41.9,93.2,41.9z"/>
</svg>
