<?xml version="1.0" encoding="utf-8"?>
<!-- Generator: Adobe Illustrator 18.1.1, SVG Export Plug-In . SVG Version: 6.00 Build 0)  -->
<!DOCTYPE svg PUBLIC "-//W3C//DTD SVG 1.1//EN" "http://www.w3.org/Graphics/SVG/1.1/DTD/svg11.dtd">
<svg version="1.1" id="Layer_1" xmlns="http://www.w3.org/2000/svg" xmlns:xlink="http://www.w3.org/1999/xlink" x="0px" y="0px"
	 viewBox="0 0 120 120" enable-background="new 0 0 120 120" xml:space="preserve">
<g>
	<path fill="#989898" d="M41,30c2.1,0,4-1.7,4-3.8v-15c0-2.1-1.6-3.8-3.7-3.8c-0.3,0-0.5,0-0.8,0.1c-0.2,0-0.5,0-0.7,0
		C38.2,7.9,37,9.5,37,11.2v15C37,28.3,38.9,30,41,30z"/>
	<path fill="#989898" d="M8.6,13.8l15,15c1.1,1.8,3.4,2.3,5.2,1.2c1.8-1.1,2.3-3.4,1.2-5.2c-0.3-0.5-0.7-0.9-1.2-1.2l-15-15
		c-0.8-0.9-2.1-1.3-3.3-1.2c-0.2,0-0.3,0-0.5,0C8,8,6.9,10.1,7.5,12.1C7.7,12.8,8.1,13.3,8.6,13.8z"/>
	<path fill="#989898" d="M11.1,45h15c2.1,0,3.8-1.4,3.8-3.5c0-2.1-1.7-3.5-3.8-3.5h-15c-0.2,0-0.5-0.3-0.7-0.2
		c-0.2,0-0.3-0.1-0.5-0.1c-2.1,0.3-3.5,2.2-3.2,4.3C7.1,44,9.1,46,11.1,45z"/>
	<path fill="#989898" d="M65.4,33.7l14.1-14.3c1.7-1.7,4.2-3.1,4.9-3.3c0.2-0.1,0.5-0.1,0.7-0.2c5.9-2.1,11.1-1.1,15,3.3
		c0.2,0.2,0.5,0.3,0.7,0.5c5.8,5.4,6,14.7-0.2,20.9L86.3,54.7l-5.4,5.4l10.6,10.6l5.4-5.2l14.3-14.3c11.6-11.6,11.8-30.6,0.2-41.9
		c-0.2-0.2-0.2-0.5-0.5-0.7l-0.2,0.2c-4-4.2-8.8-7.1-14.1-8.2c-2.6-0.6-5.3-0.7-8-0.5l0,0c-2.7,0.2-5.4,0.8-8,1.6
		c-0.1,0-0.1,0-0.2,0c-0.2,0.1-0.5-0.1-0.5,0V2c-5,1.4-8.4,4.1-11.1,6.8L54.6,23.2l-5.2,5.4L60,39.1L65.4,33.7z"/>
	<path fill="#989898" d="M93.8,83h15c2.1,0,3.8-1.9,3.8-4c0-2.1-1.7-4-3.8-4h-15c-0.2,0-0.5,0-0.7,0.1c-0.2,0-0.3,0-0.5,0
		c-2.1,0.3-3.5,2.5-3.2,4.5C89.8,81.7,91.7,83,93.8,83z"/>
	<path fill="#989898" d="M55.5,85.7l-15,15c-1.7,1.7-4.2,3.1-4.9,3.3c-0.2,0.1-0.5,0.1-0.7,0.2c-5.9,2.1-11.1,1.1-15-3.3
		c-0.2-0.2-0.5-0.3-0.7-0.5c-5.8-5.4-6-14.7,0.2-20.9l15-15l5.4-5.2L29.2,48.8l0,0L23.8,54l-15,15C-2.8,80.6-3,99.6,8.6,110.9
		c0.2,0.2,0.2,0.5,0.5,0.7l0.2-0.2c8,8.4,19.8,10.5,30.1,7.1c0-0.1,0.2,0,0.2,0c0.2-0.1,0.5,0.1,0.5,0v-0.2c5-1.4,8.4-4.1,11.1-6.8
		l15-15l5.2-5.4L60.7,80.3L55.5,85.7z"/>
	<path fill="#989898" d="M111.4,106.4l-15-15c-0.8-0.9-2.1-1.3-3.3-1.2c-0.2,0-0.3,0-0.5,0c-2,0.6-3.1,2.7-2.4,4.7
		c0.2,0.6,0.6,1.2,1,1.6l15,15c1.1,1.8,3.4,2.3,5.2,1.2c1.8-1.1,2.3-3.4,1.2-5.2C112.4,107.1,111.9,106.7,111.4,106.4z"/>
	<path fill="#989898" d="M79.1,90.1c-0.3,0-0.6,0-0.9,0.1c-0.2,0-0.4,0-0.5,0C76,90.7,75,92.2,75,93.9v15c0,2.1,1.9,3.8,4,3.8
		s4-1.7,4-3.8v-15C83,91.9,81.2,90.1,79.1,90.1z"/>
</g>
</svg>
